<svg xmlns="http://www.w3.org/2000/svg" viewBox="0 0 29 29" width="24" height="24">
  <path fill="currentColor" d="M24.18 10.44h-3.4V6.65c0-3.46-2.82-6.28-6.28-6.28S8.22 3.19 8.22 6.65c0 .55.45 1 1 1s1-.45 1-1c0-2.36 1.92-4.28 4.28-4.28s4.28 1.92 4.28 4.28v3.79H4.82c-.55 0-1 .45-1 1v16.18c0 .55.45 1 1 1h19.36c.55 0 1-.45 1-1V11.44c0-.55-.45-1-1-1Zm-1 16.19H5.82V12.45h17.36v14.18Z"/>
  <path fill="currentColor" d="m16.84 21.63-.76-1.31c.45-.42.73-1.02.73-1.68 0-1.28-1.04-2.32-2.32-2.32s-2.32 1.04-2.32 2.32c0 .66.28 1.26.73 1.68l-.76 1.31c-.18.31-.18.69 0 1 .18.31.51.5.87.5h2.95c.36 0 .69-.19.87-.5s.18-.69 0-1Z"/>
</svg>
