<?xml version="1.0" encoding="UTF-8"?><svg height="24px" width="24px" style="min-width: 24px" id="Layer_2" xmlns="http://www.w3.org/2000/svg" viewBox="0 0 24.8 24.8"><g id="Layer_1-2"><path d="m12.4,0C11.13,0,0,.1,0,3.7v17.39c0,3.6,11.13,3.7,12.4,3.7s12.4-.1,12.4-3.7V3.7C24.8.1,13.67,0,12.4,0Zm0,2c5.81,0,9.53,1.03,10.31,1.7-.78.67-4.5,1.7-10.31,1.7S2.87,4.38,2.09,3.7c.78-.67,4.51-1.7,10.31-1.7Zm0,20.8c-6.07,0-9.87-1.13-10.4-1.79v-3.5c3.26,1.44,9.47,1.5,10.4,1.5s7.14-.06,10.4-1.5v3.5c-.53.66-4.33,1.79-10.4,1.79Zm10.4-7.59c-.53.66-4.33,1.79-10.4,1.79s-9.87-1.13-10.4-1.79v-3.5c3.26,1.44,9.47,1.5,10.4,1.5s7.14-.06,10.4-1.5v3.5Zm0-5.8c-.53.66-4.33,1.79-10.4,1.79s-9.87-1.13-10.4-1.79v-3.5c3.26,1.44,9.47,1.5,10.4,1.5s7.14-.06,10.4-1.5v3.5Z"/></g></svg>