<?xml version="1.0" encoding="UTF-8"?><svg height="24px" width="24px" style="min-width: 24px" id="Layer_2" xmlns="http://www.w3.org/2000/svg" viewBox="0 0 29 29"><defs><style>.cls-1{fill:none;opacity:.25;}.cls-2{fill:#fff;}</style></defs><g id="Layer_1-2"><g><rect class="cls-1" width="29" height="29"/><path class="cls-2" d="m25.9,9.05v-4.31c0-.91-.74-1.65-1.65-1.65H4.75c-.91,0-1.65.74-1.65,1.65v4.31c0,.91.74,1.65,1.65,1.65-.91,0-1.65.74-1.65,1.65v4.31c0,.91.74,1.65,1.65,1.65-.91,0-1.65.74-1.65,1.65v4.31c0,.91.74,1.65,1.65,1.65h19.51c.91,0,1.65-.74,1.65-1.65v-4.31c0-.91-.74-1.65-1.65-1.65.91,0,1.65-.74,1.65-1.65v-4.31c0-.91-.74-1.65-1.65-1.65.91,0,1.65-.74,1.65-1.65Z"/><path d="m26.9,4.75c0-1.46-1.19-2.65-2.65-2.65H4.75c-1.46,0-2.65,1.19-2.65,2.65v4.31c0,.62.23,1.19.59,1.65-.36.45-.59,1.02-.59,1.65v4.31c0,.62.23,1.19.59,1.65-.36.45-.59,1.02-.59,1.64v4.31c0,1.46,1.19,2.65,2.65,2.65h19.51c1.46,0,2.65-1.19,2.65-2.65v-4.31c0-.62-.23-1.19-.59-1.64.36-.45.59-1.02.59-1.65v-4.31c0-.62-.23-1.19-.59-1.65.36-.45.59-1.02.59-1.65v-4.31Zm-22.8,0c0-.36.29-.65.65-.65h19.51c.36,0,.65.29.65.65v4.31c0,.36-.29.65-.65.65H4.75c-.36,0-.65-.29-.65-.65v-4.31Zm20.8,7.6v4.31c0,.36-.29.65-.65.65H4.75c-.36,0-.65-.29-.65-.65v-4.31c0-.36.29-.65.65-.65h19.51c.36,0,.65.29.65.65Zm0,11.91c0,.36-.29.65-.65.65H4.75c-.36,0-.65-.29-.65-.65v-4.31c0-.36.29-.64.65-.64h19.51c.36,0,.65.29.65.64v4.31Z"/><circle cx="21.16" cy="14.5" r="1.42"/><circle cx="21.16" cy="22.1" r="1.42"/><circle cx="21.16" cy="6.9" r="1.42"/></g></g></svg>