<svg xmlns="http://www.w3.org/2000/svg" id="uuid-fe3d66b1-10c5-4d50-9486-d1b7085bad45" viewBox="0 0 444.34 345.4">
  <defs>
    <style>
      .uuid-2a92185e-e4be-4c64-83e8-ac632198b475,.uuid-45633947-3064-4a5e-8700-5bc49a02d2c8,.uuid-49c0131b-3ba9-4faf-8aa6-2777ee50f622,.uuid-daa43f00-42fc-452b-8a11-00b73aacecba{stroke-width:0}.uuid-2a92185e-e4be-4c64-83e8-ac632198b475{fill:#7888ff}.uuid-49c0131b-3ba9-4faf-8aa6-2777ee50f622{fill:#c9cfff}.uuid-45633947-3064-4a5e-8700-5bc49a02d2c8{fill:#fff}
    </style>
  </defs>
  <g id="uuid-93edc039-3dff-4678-9dc6-79f361a29910">
    <path d="M111.06 183.01a88.3 88.3 0 0 1 166.75-44.11 80.84 80.84 0 0 1 115.54 49.38 80.83 80.83 0 0 1-31.82 155.12H125.11a80.82 80.82 0 0 1-14.06-160.39Z" class="uuid-49c0131b-3ba9-4faf-8aa6-2777ee50f622"/>
    <path d="M361.52 345.4H125.11c-45.67 0-82.82-37.15-82.82-82.82a82.61 82.61 0 0 1 66.7-81.22c-.02-.69-.03-1.43-.03-2.18 0-49.79 40.5-90.29 90.29-90.29a89.98 89.98 0 0 1 79.4 47.32 83.06 83.06 0 0 1 36.94-8.7A83.12 83.12 0 0 1 395 186.82a82.76 82.76 0 0 1 49.34 75.76c0 45.67-37.15 82.82-82.82 82.82ZM199.25 92.89c-47.58 0-86.29 38.71-86.29 86.29 0 1.36.05 2.71.1 3.75.04 1-.66 1.88-1.65 2.06a78.63 78.63 0 0 0-65.11 77.6c0 43.46 35.36 78.82 78.82 78.82h236.41c43.46 0 78.82-35.36 78.82-78.82a78.76 78.76 0 0 0-47.79-72.46 2.03 2.03 0 0 1-1.14-1.29 79.09 79.09 0 0 0-75.82-57.31 78.89 78.89 0 0 0-36.85 9.15 2.01 2.01 0 0 1-2.72-.85 86 86 0 0 0-76.78-46.92Z" class="uuid-daa43f00-42fc-452b-8a11-00b73aacecba"/>
    <path d="m374.04 14.5-.01-.52a11.98 11.98 0 0 1 22.64-5.47 10.96 10.96 0 0 1 15.68 6.7 10.97 10.97 0 0 1-4.32 21.05h-32.08a10.97 10.97 0 0 1-1.91-21.77Z" class="uuid-49c0131b-3ba9-4faf-8aa6-2777ee50f622"/>
    <path d="M408.02 38.26h-32.08a12.99 12.99 0 0 1-12.97-12.97c0-5.74 3.73-10.71 9.08-12.37a14 14 0 0 1 25.41-6.94 12.95 12.95 0 0 1 16.5 7.8A12.99 12.99 0 0 1 408 38.27ZM386.01 4a10 10 0 0 0-9.97 10.42 2 2 0 0 1-1.65 2.05 8.98 8.98 0 0 0 1.57 17.8h32.08a8.98 8.98 0 0 0 3.53-17.21 2.03 2.03 0 0 1-1.14-1.29 9 9 0 0 0-12.81-5.48 2.01 2.01 0 0 1-2.72-.85 9.94 9.94 0 0 0-8.88-5.43Z" class="uuid-daa43f00-42fc-452b-8a11-00b73aacecba"/>
    <path d="m16 74.82-.02-.8a18.51 18.51 0 0 1 34.98-8.44 16.95 16.95 0 0 1 24.22 10.35 16.95 16.95 0 0 1-6.68 32.53H18.95A16.95 16.95 0 0 1 16 74.83Z" class="uuid-49c0131b-3ba9-4faf-8aa6-2777ee50f622"/>
    <path d="M68.52 110.45H18.95A18.97 18.97 0 0 1 0 91.5a18.9 18.9 0 0 1 13.99-18.29 20.53 20.53 0 0 1 20.5-19.71c7.08 0 13.54 3.59 17.29 9.48a18.97 18.97 0 0 1 25.05 11.5A18.92 18.92 0 0 1 87.46 91.5c0 10.45-8.5 18.95-18.95 18.95ZM34.49 57.51A16.53 16.53 0 0 0 18 74.74a2 2 0 0 1-1.65 2.05A14.9 14.9 0 0 0 4.01 91.5c0 8.24 6.7 14.95 14.95 14.95h49.57a14.96 14.96 0 0 0 5.89-28.69 2.03 2.03 0 0 1-1.14-1.29 15 15 0 0 0-21.37-9.14 2.01 2.01 0 0 1-2.72-.85A16.47 16.47 0 0 0 34.5 57.5Z" class="uuid-daa43f00-42fc-452b-8a11-00b73aacecba"/>
    <rect width="127.93" height="131.49" x="170.59" y="133.01" class="uuid-45633947-3064-4a5e-8700-5bc49a02d2c8" rx="15.72" ry="15.72" transform="rotate(93.9 234.55 198.76)"/>
    <path d="M281.21 268c-.4 0-.81-.01-1.21-.04l-99.82-6.77a17.59 17.59 0 0 1-12.15-6.03 17.62 17.62 0 0 1-4.33-12.85l6.53-96.27a17.73 17.73 0 0 1 18.88-16.48l99.82 6.77a17.74 17.74 0 0 1 16.48 18.88l-6.53 96.27A17.74 17.74 0 0 1 281.21 268ZM187.9 133.51a13.74 13.74 0 0 0-13.68 12.79l-6.53 96.27c-.25 3.66.94 7.19 3.35 9.95a13.64 13.64 0 0 0 9.41 4.67l99.82 6.77a13.71 13.71 0 0 0 14.62-12.76l6.53-96.27a13.74 13.74 0 0 0-12.76-14.62l-99.82-6.77c-.31-.02-.63-.03-.94-.03Zm108.98 117.83Z" class="uuid-daa43f00-42fc-452b-8a11-00b73aacecba"/>
    <path d="M382.66 221.29s-33.78-10.9-53.4-25.61c-19.62-14.71-25.06-37.6-39.23-39.23s-68.65-19.62-81.73-7.08c-13.08 12.53-23.89 29.53-25.61 43.59-2.71 22.15 5.99 28.33 5.99 28.33s-5.98 13.08-6.52 26.96c-.53 13.88 7.61 30.8 16.87 35.15 9.26 4.36 28.33 28.88 28.33 28.88l32.43-42.65s11.7 2.33 22.87 6.14 20.43 7.08 20.43 7.08l15 7.35 23.69-20.42-16.42-22.52a21.66 21.66 0 0 0-6.52-5.91l-17.38-10.25 3.81-9.81s26.7 15.8 31.6 16.89c4.9 1.09 32.15 5.45 32.15 5.45l13.62-22.34Z" class="uuid-45633947-3064-4a5e-8700-5bc49a02d2c8"/>
    <path d="M227.37 314.29c-.62 0-1.2-.29-1.58-.77-.19-.24-18.88-24.19-27.61-28.3-9.99-4.7-18.58-22.36-18.02-37.04.45-11.7 4.58-22.67 6.13-26.39-2.52-2.74-7.82-10.85-5.59-29.07 1.68-13.75 11.73-30.91 26.21-44.79 10.62-10.17 43.1-2.53 66.83 3.06 7.04 1.66 13.12 3.09 16.52 3.48 8.59.99 14.1 8.7 20.47 17.63 5.17 7.25 11.04 15.46 19.73 21.98 19.12 14.34 52.48 25.2 52.81 25.3a2 2 0 0 1 1.09 2.95l-13.62 22.34a1.98 1.98 0 0 1-2.02.93c-1.11-.18-27.36-4.38-32.27-5.47-4.42-.98-23.52-12.04-30.16-15.93l-2.35 6.03 15.91 9.39a23.65 23.65 0 0 1 7.12 6.46l16.42 22.52a2 2 0 0 1-.31 2.69l-23.69 20.42c-.61.52-1.47.63-2.19.28l-14.89-7.29c-1.08-.38-9.92-3.49-20.3-7.04a203.19 203.19 0 0 0-21.4-5.82l-31.67 41.64a2 2 0 0 1-1.58.79h-.01Zm-2.48-167.34c-6.79 0-12.29 1.06-15.21 3.86-13.64 13.07-23.45 29.71-25.01 42.39-2.5 20.42 5.11 26.42 5.19 26.48.75.56 1.03 1.59.64 2.45-.06.13-5.83 12.9-6.34 26.21-.5 13.06 7.14 29.23 15.72 33.27 8.07 3.8 22.59 21.36 27.45 27.43l30.87-40.59a2 2 0 0 1 1.98-.75c.12.02 11.96 2.4 23.13 6.21 11.05 3.77 20.36 7.06 20.45 7.09l.21.09 13.81 6.76 21.29-18.36-15.34-21.03a19.6 19.6 0 0 0-5.92-5.37l-17.38-10.25a2.01 2.01 0 0 1-.85-2.45l3.81-9.81a2 2 0 0 1 2.88-1c10.62 6.29 27.65 15.91 31.02 16.66 4.17.93 25.19 4.33 30.7 5.21l11.62-19.05c-8.14-2.79-34.74-12.47-51.58-25.11-9.19-6.89-15.24-15.37-20.59-22.86-6.06-8.49-10.85-15.2-17.67-15.99-3.63-.42-9.52-1.8-16.98-3.56-13.71-3.23-33.67-7.93-47.94-7.93Z" class="uuid-daa43f00-42fc-452b-8a11-00b73aacecba"/>
    <path d="m193.38 122.84-8.51-3.82c-5.11-2.3-8.11-6.77-7.52-11.25l3.37-25.68c.59-4.48 4.63-8.03 10.17-8.93l9.21-1.5" class="uuid-45633947-3064-4a5e-8700-5bc49a02d2c8"/>
    <path d="M193.37 124.84c-.27 0-.55-.06-.82-.18l-8.51-3.82c-5.89-2.64-9.38-8-8.68-13.34l3.37-25.68c.7-5.33 5.45-9.61 11.83-10.64l9.21-1.5a2 2 0 1 1 .64 3.94l-9.21 1.5c-4.62.75-8.04 3.65-8.5 7.22l-3.37 25.68c-.47 3.57 2.09 7.25 6.35 9.17l8.51 3.82c1.01.45 1.46 1.64 1.01 2.64a2 2 0 0 1-1.83 1.18Z" class="uuid-daa43f00-42fc-452b-8a11-00b73aacecba"/>
    <path d="m330.63 140.85 9.21-1.5c5.53-.9 9.58-4.45 10.17-8.93l3.37-25.68c.59-4.48-2.4-8.95-7.52-11.25l-8.51-3.82" class="uuid-45633947-3064-4a5e-8700-5bc49a02d2c8"/>
    <path d="M330.62 142.85a2 2 0 0 1-1.97-1.68 1.99 1.99 0 0 1 1.65-2.29l9.21-1.5c4.62-.75 8.04-3.65 8.5-7.22l3.37-25.68c.47-3.57-2.09-7.25-6.35-9.17l-8.51-3.82c-1.01-.45-1.46-1.64-1.01-2.64a1.99 1.99 0 0 1 2.64-1l8.51 3.82c5.89 2.64 9.38 8 8.68 13.34l-3.37 25.68c-.7 5.33-5.45 9.61-11.83 10.64l-9.21 1.5-.32.03Z" class="uuid-daa43f00-42fc-452b-8a11-00b73aacecba"/>
    <circle cx="265.98" cy="101.53" r="73.33" class="uuid-45633947-3064-4a5e-8700-5bc49a02d2c8"/>
    <path d="M266.03 176.87c-3.26 0-6.54-.21-9.86-.65a74.82 74.82 0 0 1-49.94-28.81 74.82 74.82 0 0 1-14.94-55.69 74.87 74.87 0 0 1 28.81-49.95 74.87 74.87 0 0 1 55.69-14.95c41.19 5.41 70.3 43.31 64.89 84.5-4.97 37.87-37.43 65.53-74.64 65.54Zm-.2-146.69a70.79 70.79 0 0 0-43.3 14.77 70.89 70.89 0 0 0-27.28 47.29c-2.48 18.89 2.55 37.62 14.15 52.73s28.4 24.8 47.29 27.28c38.99 5.12 74.89-22.45 80.01-61.44 5.12-39-22.45-74.89-61.44-80.01-3.15-.41-6.3-.62-9.43-.62Zm-72.56 61.8Z" class="uuid-daa43f00-42fc-452b-8a11-00b73aacecba"/>
    <ellipse cx="264.75" cy="110.99" class="uuid-daa43f00-42fc-452b-8a11-00b73aacecba" rx="40.18" ry="71.46" transform="rotate(-82.5 264.76 110.99)"/>
    <path d="M275.89 153.92c-5.44 0-11.01-.36-16.63-1.1-19.26-2.53-36.84-9.14-49.51-18.63-13-9.73-19.33-21.37-17.84-32.76 1.5-11.39 10.62-21 25.69-27.04 14.68-5.89 33.38-7.75 52.64-5.22 19.26 2.53 36.84 9.14 49.51 18.63 13 9.73 19.33 21.37 17.84 32.76-1.5 11.39-10.62 21-25.69 27.04-10.4 4.17-22.81 6.32-36.01 6.32Zm-22.3-81.86c-30.81 0-55.36 12.04-57.71 29.89-1.3 9.89 4.48 20.21 16.27 29.04 12.12 9.08 29.04 15.42 47.63 17.86 37.97 4.99 71.1-7.94 73.84-28.82 1.3-9.89-4.48-20.21-16.27-29.04-12.12-9.08-29.04-15.42-47.63-17.86-5.5-.72-10.91-1.07-16.13-1.07Z" class="uuid-daa43f00-42fc-452b-8a11-00b73aacecba"/>
    <path d="M274.23 147.41c-4.61 0-9.34-.3-14.13-.93-40.16-5.27-69.96-31.48-66.42-58.42 3.54-26.94 39.09-44.57 79.25-39.3 40.16 5.27 69.96 31.48 66.42 58.42-3.11 23.72-31.06 40.23-65.12 40.23Zm-76.59-58.82c-3.25 24.75 25 48.95 62.98 53.93 4.66.61 9.25.91 13.73.91 32.02 0 58.18-15.04 61.03-36.76 3.25-24.75-25-48.95-62.98-53.93-37.97-4.99-71.51 11.1-74.76 35.85Z" class="uuid-daa43f00-42fc-452b-8a11-00b73aacecba"/>
    <path d="m334.51 259.69 10.57 13.92 6.13-3.65a10.9 10.9 0 0 1 11.99 18.19l-26.34 19.48a11.47 11.47 0 0 1-14.59-.89l-19.52-23.58c13.3-6.37 24.19-14.37 31.76-23.46Z" class="uuid-45633947-3064-4a5e-8700-5bc49a02d2c8"/>
    <path d="M330.11 311.82a13.46 13.46 0 0 1-9.38-3.81l-19.52-23.58a2.02 2.02 0 0 1-.41-1.71c.13-.6.53-1.11 1.09-1.37 13.06-6.26 23.8-14.19 31.08-22.94.39-.47.95-.73 1.58-.72.61.01 1.18.3 1.55.79l9.49 12.49 4.59-2.74a12.86 12.86 0 0 1 16.48 2.78 12.94 12.94 0 0 1-2.28 18.75l-26.33 19.47a13.5 13.5 0 0 1-7.95 2.58Zm-6.39-6.46a9.5 9.5 0 0 0 11.96.65l26.33-19.47a8.82 8.82 0 0 0 3.61-6.13c.3-2.48-.42-4.9-2.03-6.81a8.88 8.88 0 0 0-11.37-1.92l-6.13 3.65a2 2 0 0 1-2.62-.51l-9.08-11.95c-7.11 7.92-16.88 15.11-28.5 20.97l17.82 21.53Z" class="uuid-daa43f00-42fc-452b-8a11-00b73aacecba"/>
    <path d="m375.22 253.04-4.1-2.88a15.13 15.13 0 0 1-3.67-21.06l5.76-8.2a15.13 15.13 0 0 1 21.06-3.67l4.1 2.88a20.14 20.14 0 0 1-23.16 32.93Z" class="uuid-45633947-3064-4a5e-8700-5bc49a02d2c8"/>
    <path d="M386.74 258.72c-4.51 0-8.91-1.38-12.68-4.03l-4.1-2.88a17.14 17.14 0 0 1-4.16-23.85l5.76-8.2a17.14 17.14 0 0 1 23.85-4.16l4.1 2.88a22.16 22.16 0 0 1 5.38 30.83 21.95 21.95 0 0 1-18.15 9.4Zm-14.47-10.19 4.1 2.88a18 18 0 0 0 13.54 3.03 18.03 18.03 0 0 0 11.72-7.43 18.16 18.16 0 0 0-4.4-25.26l-4.1-2.88a13.07 13.07 0 0 0-9.8-2.19c-3.45.6-6.46 2.51-8.48 5.38l-5.76 8.2a13.14 13.14 0 0 0 3.19 18.28Z" class="uuid-daa43f00-42fc-452b-8a11-00b73aacecba"/>
    <path d="M258.8 215.47s-18.88 6.94-36.69 9.44c-26.88 3.78-33.43-3.62-33.43-3.62" class="uuid-45633947-3064-4a5e-8700-5bc49a02d2c8"/>
    <path d="M208.02 228c-15.52 0-20.25-4.72-20.84-5.38a2 2 0 0 1 .17-2.82 2 2 0 0 1 2.82.17c.03.03 6.62 6.49 31.65 2.97 17.38-2.45 36.09-9.27 36.28-9.34a2 2 0 1 1 1.38 3.76c-.19.07-19.29 7.04-37.1 9.55-5.59.79-10.34 1.1-14.37 1.1Z" class="uuid-daa43f00-42fc-452b-8a11-00b73aacecba"/>
    <path d="M261.17 196.87c-17.63-4.96-38.15-3.2-47.06-7.56" class="uuid-45633947-3064-4a5e-8700-5bc49a02d2c8"/>
    <path d="M261.18 198.87c-.18 0-.36-.02-.54-.08-8.54-2.4-17.9-3.2-26.16-3.91-8.8-.75-16.4-1.41-21.24-3.78a2 2 0 0 1-.92-2.67 2.01 2.01 0 0 1 2.68-.92c4.16 2.04 11.42 2.66 19.82 3.38 8.43.72 17.99 1.54 26.9 4.05a2 2 0 0 1-.54 3.93Z" class="uuid-daa43f00-42fc-452b-8a11-00b73aacecba"/>
    <path d="M231.92 242.84c14.53 9.69 24.87 23.68 24.87 23.68" class="uuid-45633947-3064-4a5e-8700-5bc49a02d2c8"/>
    <path d="M256.79 268.52a2 2 0 0 1-1.61-.81c-.1-.14-10.32-13.84-24.37-23.21a1.99 1.99 0 0 1-.55-2.77 1.99 1.99 0 0 1 2.77-.55c14.65 9.77 24.94 23.57 25.37 24.16a2 2 0 0 1-1.61 3.19Z" class="uuid-daa43f00-42fc-452b-8a11-00b73aacecba"/>
    <path d="M258.43 268.36c4.5-2.74 24.96-2.23 21.5 17.38-3.46 19.61-16.34 43.06-31.81 41.14-15.47-1.92-16.5-9.36-22.39-14.99-8.15-7.78-11.15-15.13-11.15-15.13s.46-12.99 8.45-22.44c7.99-9.44 21.34-18.71 27.8-14.63 2.59 1.96 7.61 8.67 7.61 8.67Z" class="uuid-45633947-3064-4a5e-8700-5bc49a02d2c8"/>
    <path d="M249.93 328.99c-.68 0-1.37-.04-2.06-.13-12.42-1.54-16.4-6.72-19.91-11.29-1.16-1.51-2.25-2.93-3.62-4.24-8.36-7.98-11.49-15.51-11.62-15.82a1.94 1.94 0 0 1-.15-.83c.02-.56.58-13.8 8.92-23.66 4.29-5.07 9.89-9.86 14.99-12.82 6.44-3.74 11.76-4.5 15.4-2.2l.14.1c2.11 1.59 5.4 5.69 7.05 7.81 4.12-1.35 11.49-1.11 16.8 2.52 3.72 2.54 7.79 7.67 6.02 17.66-3.15 17.82-15.34 42.9-31.97 42.9Zm-33.33-32.6c.73 1.57 3.84 7.69 10.5 14.05a38.92 38.92 0 0 1 4.03 4.7c3.33 4.33 6.47 8.42 17.23 9.76 14.44 1.78 26.47-21.79 29.6-39.5 1.12-6.34-.34-10.93-4.34-13.67-4.94-3.38-12.25-2.81-14.15-1.66a2 2 0 0 1-2.64-.51c-1.33-1.78-5.19-6.69-7.15-8.22-4.11-2.47-15.39 2.76-25.13 14.27-6.63 7.84-7.78 18.5-7.95 20.78Z" class="uuid-daa43f00-42fc-452b-8a11-00b73aacecba"/>
    <path d="M231.47 320.91c-.6 0-1.19-.27-1.58-.78-2.05-2.64-2.64-6.53-1.75-11.54 2.24-12.74 14.52-32.63 29.22-41.92a2 2 0 0 1 2.14 3.38c-13.6 8.6-25.37 27.58-27.42 39.23-.67 3.8-.33 6.71.98 8.4a2 2 0 0 1-1.58 3.23Z" class="uuid-daa43f00-42fc-452b-8a11-00b73aacecba"/>
    <path d="M385.31 234.01h-83.37v-10.63h83.37z" class="uuid-45633947-3064-4a5e-8700-5bc49a02d2c8"/>
    <path d="M385.31 236.01h-83.37a2 2 0 0 1-2-2v-10.62c0-1.1.9-2 2-2h83.37a2 2 0 0 1 2 2v10.62a2 2 0 0 1-2 2Zm-81.37-4h79.37v-6.62h-79.37v6.62Z" class="uuid-daa43f00-42fc-452b-8a11-00b73aacecba"/>
    <path d="M301.94 223.38h83.37l28.22-57.7a3.64 3.64 0 0 0-3.27-5.24h-69.52c-4.91 0-9.39 2.8-11.55 7.21l-27.26 55.73Z" class="uuid-45633947-3064-4a5e-8700-5bc49a02d2c8"/>
    <path d="M385.31 225.38h-83.37a2 2 0 0 1-1.8-2.88l27.26-55.73a14.94 14.94 0 0 1 13.34-8.33h69.52a5.62 5.62 0 0 1 5.06 8.11l-28.22 57.7a2 2 0 0 1-1.8 1.12Zm-80.16-4h78.91l27.68-56.58a1.64 1.64 0 0 0-1.47-2.36h-69.52c-4.12 0-7.94 2.39-9.75 6.08l-25.85 52.85Z" class="uuid-daa43f00-42fc-452b-8a11-00b73aacecba"/>
    <path d="M301.94 234.01h-51.08a5.31 5.31 0 0 1 0-10.62h51.08v10.63Z" class="uuid-45633947-3064-4a5e-8700-5bc49a02d2c8"/>
    <path d="M301.94 236.01h-51.08a7.32 7.32 0 0 1 0-14.62h51.08a2 2 0 0 1 2 2v10.62a2 2 0 0 1-2 2Zm-51.08-10.63a3.31 3.31 0 0 0 0 6.62h49.08v-6.62h-49.08Z" class="uuid-daa43f00-42fc-452b-8a11-00b73aacecba"/>
    <path d="m347.21 188.07.15-.43c1.99-5.43 8-9.82 13.42-9.8 3.81 0 6.31 2.19 6.78 5.37 1.5-.66 3.07-1.04 4.58-1.03 4.11.01 6.56 2.79 6.25 6.56 2.7 1.38 3.78 4.57 2.42 8.28-1.82 4.97-7.32 8.98-12.28 8.97l-26.29-.07c-4.96-.01-7.51-4.05-5.69-9.02a14.57 14.57 0 0 1 10.67-8.84Z" class="uuid-2a92185e-e4be-4c64-83e8-ac632198b475"/>
    <path d="M368.54 207.99h-.03l-26.29-.07c-2.96 0-5.41-1.18-6.89-3.31-1.56-2.24-1.81-5.3-.67-8.4 1.7-4.64 6.23-8.63 11.06-9.88 2.49-5.94 8.96-10.5 15.03-10.5h.03c3.79 0 6.75 1.82 8.09 4.78 1.09-.3 2.18-.45 3.24-.45h.03c2.55 0 4.78.91 6.28 2.55a7.81 7.81 0 0 1 1.98 4.93c2.84 2.13 3.77 6.01 2.28 10.06-2.12 5.77-8.32 10.28-14.14 10.28Zm-7.79-28.15c-4.56 0-9.83 3.88-11.51 8.49l-.12.35a1.99 1.99 0 0 1-1.58 1.36 12.57 12.57 0 0 0-9.11 7.55c-.68 1.85-.61 3.58.2 4.74.71 1.02 2 1.59 3.62 1.59l26.29.07h.02c4.11 0 8.86-3.5 10.38-7.66.97-2.63.41-4.86-1.45-5.82a2 2 0 0 1-1.08-1.95 4 4 0 0 0-.92-3.15 4.4 4.4 0 0 0-3.34-1.25c-1.19.04-2.49.29-3.77.86-.57.25-1.23.22-1.78-.08s-.92-.84-1.01-1.46c-.33-2.28-2.13-3.65-4.8-3.66h-.02Zm-13.54 8.23Z" class="uuid-daa43f00-42fc-452b-8a11-00b73aacecba"/>
    <path d="m282.95 198.52.96 4.91a15.13 15.13 0 0 1-11.94 17.75l-9.83 1.92a15.13 15.13 0 0 1-17.74-11.94l-.97-4.91a20.14 20.14 0 0 1 39.51-7.73Z" class="uuid-45633947-3064-4a5e-8700-5bc49a02d2c8"/>
    <path d="M259.23 225.38c-8.02 0-15.2-5.68-16.8-13.84l-.96-4.92a22.16 22.16 0 0 1 17.47-25.97 22 22 0 0 1 16.6 3.36c4.9 3.3 8.23 8.31 9.37 14.11l.96 4.92a17.14 17.14 0 0 1-13.52 20.09l-9.83 1.92c-1.1.22-2.21.32-3.29.32Zm4-41.13a18.15 18.15 0 0 0-17.83 21.61l.96 4.92a13.14 13.14 0 0 0 15.4 10.36l9.83-1.92a13.14 13.14 0 0 0 10.36-15.4l-.96-4.92a18 18 0 0 0-7.67-11.56 17.97 17.97 0 0 0-10.08-3.09Z" class="uuid-daa43f00-42fc-452b-8a11-00b73aacecba"/>
    <path d="M304.76 217.61c0-16.66-2.01-27.57-5.59-33.75" class="uuid-45633947-3064-4a5e-8700-5bc49a02d2c8"/>
    <path d="M304.76 219.61a2 2 0 0 1-2-2c0-15.63-1.79-26.65-5.32-32.74a2 2 0 1 1 3.46-2c3.94 6.81 5.86 18.17 5.86 34.75a2 2 0 0 1-2 2Zm-139.07 24.83a2 2 0 0 1-2-2c0-3.45-4.2-7.01-11.52-9.76-8.05-3.02-18.8-4.69-30.28-4.69-1.1 0-2-.9-2-2s.9-2 2-2c26.11 0 45.8 7.93 45.8 18.45a2 2 0 0 1-2 2Z" class="uuid-daa43f00-42fc-452b-8a11-00b73aacecba"/>
    <path d="M165.69 236.01a2 2 0 0 1-2-2c0-14.34-10.71-26.02-23.87-26.02-1.1 0-2-.9-2-2s.9-2 2-2c15.37 0 27.87 13.46 27.87 30.02a2 2 0 0 1-2 2Zm159.68 13.25a2 2 0 0 1-2-2c0-6.11 6.06-11.08 13.52-11.08 1.1 0 2 .9 2 2s-.9 2-2 2c-5.25 0-9.52 3.18-9.52 7.08a2 2 0 0 1-2 2Z" class="uuid-daa43f00-42fc-452b-8a11-00b73aacecba"/>
  </g>
</svg>