<?xml version="1.0" encoding="UTF-8"?><svg id="Layer_2" xmlns="http://www.w3.org/2000/svg" xmlns:xlink="http://www.w3.org/1999/xlink" viewBox="0 0 2007.81 1597.79"><defs><style>.cls-1{fill:none;}.cls-2{clip-path:url(#clippath);}.cls-3{fill:#fff;}.cls-4{fill:#c9cfff;}.cls-5{fill:#7888ff;}.cls-6{clip-path:url(#clippath-1);}.cls-7{clip-path:url(#clippath-4);}.cls-8{clip-path:url(#clippath-3);}.cls-9{clip-path:url(#clippath-2);}</style><clipPath id="clippath"><circle class="cls-1" cx="1208.91" cy="798.9" r="149.67"/></clipPath><clipPath id="clippath-1"><circle class="cls-1" cx="694.12" cy="573.18" r="22.12"/></clipPath><clipPath id="clippath-2"><circle class="cls-1" cx="1126.35" cy="785.16" r="26.51"/></clipPath><clipPath id="clippath-3"><circle class="cls-1" cx="1226.01" cy="830.26" r="20.12"/></clipPath><clipPath id="clippath-4"><circle class="cls-1" cx="1216.97" cy="720.39" r="32.98"/></clipPath></defs><g id="Layer_1-2"><g><g><path class="cls-4" d="m1208.91,1204.68c-54.78,0-107.92-10.73-157.95-31.89-48.32-20.44-91.72-49.7-128.98-86.96-37.26-37.26-66.52-80.66-86.96-128.98-21.16-50.03-31.89-103.17-31.89-157.95s10.73-107.92,31.89-157.95c20.44-48.32,49.7-91.72,86.96-128.98s80.66-66.52,128.98-86.96c50.03-21.16,103.17-31.89,157.95-31.89s107.92,10.73,157.95,31.89c48.32,20.44,91.72,49.7,128.98,86.96s66.52,80.66,86.96,128.98c21.16,50.03,31.89,103.17,31.89,157.95s-10.73,107.92-31.89,157.95c-20.44,48.32-49.7,91.72-86.96,128.98-37.26,37.27-80.66,66.52-128.98,86.96-50.03,21.16-103.17,31.89-157.95,31.89Zm0-803.75c-53.73,0-105.84,10.52-154.9,31.27-47.39,20.04-89.95,48.74-126.5,85.29s-65.25,79.11-85.29,126.5c-20.75,49.06-31.27,101.18-31.27,154.91s10.52,105.84,31.27,154.9c20.04,47.39,48.74,89.95,85.29,126.5s79.11,65.25,126.5,85.29c49.06,20.75,101.18,31.27,154.9,31.27s105.84-10.52,154.9-31.27c47.39-20.04,89.95-48.74,126.5-85.29s65.25-79.11,85.29-126.5c20.75-49.06,31.27-101.18,31.27-154.9s-10.52-105.84-31.27-154.91c-20.04-47.39-48.74-89.95-85.29-126.5s-79.11-65.25-126.5-85.29c-49.06-20.75-101.18-31.27-154.9-31.27Z"/><path class="cls-4" d="m1208.91,1396.4c-80.66,0-158.91-15.8-232.58-46.96-71.15-30.09-135.05-73.18-189.92-128.05-54.87-54.87-97.95-118.77-128.05-189.92-31.16-73.67-46.96-151.92-46.96-232.58s15.8-158.91,46.96-232.58c30.09-71.15,73.18-135.05,128.05-189.92,54.87-54.87,118.77-97.95,189.92-128.05,73.67-31.16,151.92-46.96,232.58-46.96s158.91,15.8,232.58,46.96c71.15,30.09,135.05,73.18,189.92,128.05,54.87,54.87,97.95,118.77,128.05,189.92,31.16,73.67,46.96,151.92,46.96,232.58s-15.8,158.91-46.96,232.58c-30.09,71.15-73.18,135.05-128.05,189.92-54.87,54.87-118.77,97.95-189.92,128.05-73.67,31.16-151.92,46.96-232.58,46.96Zm0-1187.19c-79.61,0-156.83,15.59-229.53,46.34-70.22,29.7-133.28,72.22-187.44,126.38-54.16,54.16-96.68,117.22-126.38,187.44-30.75,72.7-46.34,149.92-46.34,229.53s15.59,156.83,46.34,229.53c29.7,70.22,72.22,133.28,126.38,187.44,54.16,54.16,117.22,96.68,187.44,126.38,72.7,30.75,149.92,46.34,229.53,46.34s156.83-15.59,229.53-46.34c70.22-29.7,133.28-72.22,187.44-126.38,54.16-54.16,96.68-117.22,126.38-187.44,30.75-72.7,46.34-149.92,46.34-229.53s-15.59-156.83-46.34-229.53c-29.7-70.22-72.22-133.28-126.38-187.44-54.16-54.16-117.22-96.68-187.44-126.38-72.7-30.75-149.92-46.34-229.53-46.34Z"/><path class="cls-4" d="m1208.91,1597.79c-107.85,0-212.47-21.12-310.97-62.78-95.13-40.24-180.57-97.84-253.94-171.21-73.37-73.37-130.97-158.8-171.21-253.94-41.66-98.49-62.78-203.12-62.78-310.97s21.12-212.47,62.78-310.97c40.24-95.13,97.84-180.57,171.21-253.94,73.37-73.37,158.8-130.97,253.94-171.21C996.44,21.12,1101.06,0,1208.91,0s212.47,21.12,310.97,62.78c95.13,40.24,180.57,97.84,253.94,171.21,73.37,73.37,130.97,158.8,171.21,253.94,41.66,98.5,62.78,203.12,62.78,310.97s-21.12,212.47-62.78,310.97c-40.24,95.13-97.84,180.57-171.21,253.94-73.37,73.37-158.81,130.97-253.94,171.21-98.5,41.66-203.12,62.78-310.97,62.78Zm0-1589.97c-106.8,0-210.4,20.92-307.92,62.17-94.2,39.84-178.8,96.88-251.45,169.54-72.65,72.65-129.69,157.25-169.54,251.45-41.25,97.53-62.17,201.13-62.17,307.92s20.92,210.4,62.17,307.92c39.84,94.2,96.88,178.8,169.54,251.46,72.65,72.65,157.25,129.69,251.45,169.54,97.53,41.25,201.13,62.17,307.92,62.17s210.4-20.92,307.92-62.17c94.2-39.84,178.8-96.88,251.45-169.54,72.65-72.65,129.69-157.25,169.54-251.46,41.25-97.53,62.17-201.12,62.17-307.92s-20.92-210.4-62.17-307.92c-39.84-94.2-96.88-178.8-169.54-251.45-72.65-72.65-157.25-129.69-251.45-169.54-97.53-41.25-201.13-62.17-307.92-62.17Z"/><g><path class="cls-3" d="m1466.64,438.05c0-34.41-9.68-44.08-44.08-44.08,34.41,0,44.08-9.68,44.08-44.08,0,34.41,9.68,44.08,44.08,44.08-34.41,0-44.08,9.68-44.08,44.08Z"/><path d="m1466.64,441.96c-2.16,0-3.91-1.75-3.91-3.91,0-32.29-7.88-40.17-40.17-40.17-2.16,0-3.91-1.75-3.91-3.91s1.75-3.91,3.91-3.91c32.29,0,40.17-7.88,40.17-40.17,0-2.16,1.75-3.91,3.91-3.91s3.91,1.75,3.91,3.91c0,32.29,7.88,40.17,40.17,40.17,2.16,0,3.91,1.75,3.91,3.91s-1.75,3.91-3.91,3.91c-32.29,0-40.17,7.88-40.17,40.17,0,2.16-1.75,3.91-3.91,3.91Zm-16.29-47.99c4,1.59,7.24,3.7,9.91,6.38,2.68,2.68,4.78,5.92,6.38,9.91,1.59-4,3.7-7.24,6.38-9.91,2.68-2.68,5.92-4.78,9.91-6.38-4-1.59-7.24-3.7-9.91-6.38-2.68-2.68-4.78-5.92-6.38-9.91-1.59,4-3.7,7.24-6.38,9.91-2.68,2.68-5.92,4.78-9.91,6.38Z"/></g><g><path class="cls-3" d="m1152.86,145.49c0-34.41-9.68-44.08-44.08-44.08,34.41,0,44.08-9.68,44.08-44.08,0,34.41,9.68,44.08,44.08,44.08-34.41,0-44.08,9.68-44.08,44.08Z"/><path d="m1152.86,149.4c-2.16,0-3.91-1.75-3.91-3.91,0-32.29-7.88-40.17-40.17-40.17-2.16,0-3.91-1.75-3.91-3.91s1.75-3.91,3.91-3.91c32.29,0,40.17-7.88,40.17-40.18,0-2.16,1.75-3.91,3.91-3.91s3.91,1.75,3.91,3.91c0,32.29,7.88,40.18,40.17,40.18,2.16,0,3.91,1.75,3.91,3.91s-1.75,3.91-3.91,3.91c-32.29,0-40.17,7.88-40.17,40.17,0,2.16-1.75,3.91-3.91,3.91Zm-16.29-47.99c4,1.59,7.24,3.7,9.91,6.38,2.68,2.68,4.78,5.92,6.38,9.91,1.59-4,3.7-7.24,6.38-9.91,2.68-2.68,5.92-4.78,9.91-6.38-4-1.59-7.24-3.7-9.91-6.38s-4.78-5.92-6.38-9.91c-1.59,4-3.7,7.24-6.38,9.91s-5.92,4.79-9.91,6.38Z"/></g><g><path class="cls-3" d="m1889.78,101.41c0-34.41-9.68-44.08-44.08-44.08,34.41,0,44.08-9.68,44.08-44.08,0,34.41,9.68,44.08,44.08,44.08-34.41,0-44.08,9.68-44.08,44.08Z"/><path d="m1889.78,105.32c-2.16,0-3.91-1.75-3.91-3.91,0-32.29-7.88-40.18-40.17-40.18-2.16,0-3.91-1.75-3.91-3.91s1.75-3.91,3.91-3.91c32.29,0,40.17-7.88,40.17-40.17,0-2.16,1.75-3.91,3.91-3.91s3.91,1.75,3.91,3.91c0,32.29,7.88,40.17,40.18,40.17,2.16,0,3.91,1.75,3.91,3.91s-1.75,3.91-3.91,3.91c-32.29,0-40.18,7.88-40.18,40.18,0,2.16-1.75,3.91-3.91,3.91Zm-16.29-47.99c4,1.59,7.24,3.7,9.91,6.38s4.78,5.92,6.38,9.91c1.59-4,3.7-7.24,6.38-9.91,2.68-2.68,5.92-4.79,9.91-6.38-4-1.59-7.24-3.7-9.91-6.38s-4.79-5.92-6.38-9.91c-1.59,4-3.7,7.24-6.38,9.91-2.68,2.68-5.92,4.78-9.91,6.38Z"/></g><g><path class="cls-3" d="m254.99,1160.02c0-34.41-9.68-44.08-44.08-44.08,34.41,0,44.08-9.68,44.08-44.08,0,34.41,9.68,44.08,44.08,44.08-34.41,0-44.08,9.68-44.08,44.08Z"/><path d="m254.99,1163.92c-2.16,0-3.91-1.75-3.91-3.91,0-32.29-7.88-40.17-40.17-40.17-2.16,0-3.91-1.75-3.91-3.91s1.75-3.91,3.91-3.91c32.29,0,40.17-7.88,40.17-40.17,0-2.16,1.75-3.91,3.91-3.91s3.91,1.75,3.91,3.91c0,32.29,7.88,40.17,40.17,40.17,2.16,0,3.91,1.75,3.91,3.91s-1.75,3.91-3.91,3.91c-32.29,0-40.17,7.88-40.17,40.17,0,2.16-1.75,3.91-3.91,3.91Zm-16.29-47.99c4,1.59,7.24,3.7,9.91,6.38,2.68,2.68,4.78,5.92,6.38,9.91,1.59-4,3.7-7.24,6.38-9.91,2.68-2.68,5.92-4.78,9.91-6.38-4-1.59-7.24-3.7-9.91-6.38-2.68-2.68-4.78-5.92-6.38-9.91-1.59,4-3.7,7.24-6.38,9.91-2.68,2.68-5.92,4.78-9.91,6.38Z"/></g><g><path class="cls-3" d="m1402.66,1058.7c0-34.41-9.68-44.08-44.08-44.08,34.41,0,44.08-9.68,44.08-44.08,0,34.41,9.68,44.08,44.08,44.08-34.41,0-44.08,9.68-44.08,44.08Z"/><path d="m1402.66,1062.61c-2.16,0-3.91-1.75-3.91-3.91,0-32.29-7.88-40.18-40.17-40.18-2.16,0-3.91-1.75-3.91-3.91s1.75-3.91,3.91-3.91c32.29,0,40.17-7.88,40.17-40.17,0-2.16,1.75-3.91,3.91-3.91s3.91,1.75,3.91,3.91c0,32.29,7.88,40.17,40.18,40.17,2.16,0,3.91,1.75,3.91,3.91s-1.75,3.91-3.91,3.91c-32.29,0-40.18,7.88-40.18,40.18,0,2.16-1.75,3.91-3.91,3.91Zm-16.29-47.99c4,1.59,7.24,3.7,9.91,6.38s4.78,5.92,6.38,9.91c1.59-4,3.7-7.24,6.38-9.91,2.68-2.68,5.92-4.79,9.91-6.38-4-1.59-7.24-3.7-9.91-6.38s-4.79-5.92-6.38-9.91c-1.59,4-3.7,7.24-6.38,9.91-2.68,2.68-5.92,4.78-9.91,6.38Z"/></g><g><path class="cls-3" d="m1848.84,629.86c0-34.41-9.68-44.08-44.08-44.08,34.41,0,44.08-9.68,44.08-44.08,0,34.41,9.68,44.08,44.08,44.08-34.41,0-44.08,9.68-44.08,44.08Z"/><path d="m1848.84,633.77c-2.16,0-3.91-1.75-3.91-3.91,0-32.29-7.88-40.17-40.18-40.17-2.16,0-3.91-1.75-3.91-3.91s1.75-3.91,3.91-3.91c32.29,0,40.18-7.88,40.18-40.17,0-2.16,1.75-3.91,3.91-3.91s3.91,1.75,3.91,3.91c0,32.29,7.88,40.17,40.17,40.17,2.16,0,3.91,1.75,3.91,3.91s-1.75,3.91-3.91,3.91c-32.29,0-40.17,7.88-40.17,40.17,0,2.16-1.75,3.91-3.91,3.91Zm-16.29-47.99c4,1.59,7.24,3.7,9.91,6.38s4.79,5.92,6.38,9.91c1.59-4,3.7-7.24,6.38-9.91,2.68-2.68,5.92-4.78,9.91-6.38-4-1.59-7.24-3.7-9.91-6.38-2.68-2.68-4.78-5.92-6.38-9.91-1.59,4-3.7,7.24-6.38,9.91s-5.92,4.78-9.91,6.38Z"/></g><g><path class="cls-3" d="m494.49,167.53c0-17.2-4.84-22.04-22.04-22.04,17.2,0,22.04-4.84,22.04-22.04,0,17.2,4.84,22.04,22.04,22.04-17.2,0-22.04,4.84-22.04,22.04Z"/><path d="m494.49,171.44c-2.16,0-3.91-1.75-3.91-3.91,0-15.08-3.05-18.13-18.13-18.13-2.16,0-3.91-1.75-3.91-3.91s1.75-3.91,3.91-3.91c15.08,0,18.13-3.05,18.13-18.13,0-2.16,1.75-3.91,3.91-3.91s3.91,1.75,3.91,3.91c0,15.08,3.05,18.13,18.13,18.13,2.16,0,3.91,1.75,3.91,3.91s-1.75,3.91-3.91,3.91c-15.08,0-18.13,3.05-18.13,18.13,0,2.16-1.75,3.91-3.91,3.91Zm-3.97-25.95c1.58,1.07,2.89,2.38,3.97,3.97,1.07-1.58,2.38-2.9,3.97-3.97-1.58-1.07-2.9-2.38-3.97-3.97-1.07,1.58-2.38,2.89-3.97,3.97Z"/></g><g><path class="cls-3" d="m981.85,655.23c0-17.2-4.84-22.04-22.04-22.04,17.2,0,22.04-4.84,22.04-22.04,0,17.2,4.84,22.04,22.04,22.04-17.2,0-22.04,4.84-22.04,22.04Z"/><path d="m981.85,659.14c-2.16,0-3.91-1.75-3.91-3.91,0-15.08-3.05-18.13-18.13-18.13-2.16,0-3.91-1.75-3.91-3.91s1.75-3.91,3.91-3.91c15.08,0,18.13-3.05,18.13-18.13,0-2.16,1.75-3.91,3.91-3.91s3.91,1.75,3.91,3.91c0,15.08,3.05,18.13,18.13,18.13,2.16,0,3.91,1.75,3.91,3.91s-1.75,3.91-3.91,3.91c-15.08,0-18.13,3.05-18.13,18.13,0,2.16-1.75,3.91-3.91,3.91Zm-3.97-25.95c1.58,1.07,2.89,2.38,3.97,3.97,1.07-1.58,2.38-2.89,3.97-3.97-1.58-1.07-2.9-2.38-3.97-3.97-1.07,1.58-2.38,2.9-3.97,3.97Z"/></g><g><path class="cls-3" d="m764.44,305.17c0-17.2-4.84-22.04-22.04-22.04,17.2,0,22.04-4.84,22.04-22.04,0,17.2,4.84,22.04,22.04,22.04-17.2,0-22.04,4.84-22.04,22.04Z"/><path d="m764.44,309.08c-2.16,0-3.91-1.75-3.91-3.91,0-15.08-3.05-18.13-18.13-18.13-2.16,0-3.91-1.75-3.91-3.91s1.75-3.91,3.91-3.91c15.08,0,18.13-3.05,18.13-18.13,0-2.16,1.75-3.91,3.91-3.91s3.91,1.75,3.91,3.91c0,15.08,3.05,18.13,18.13,18.13,2.16,0,3.91,1.75,3.91,3.91s-1.75,3.91-3.91,3.91c-15.08,0-18.13,3.05-18.13,18.13,0,2.16-1.75,3.91-3.91,3.91Zm-3.97-25.95c1.58,1.07,2.89,2.38,3.97,3.97,1.07-1.58,2.38-2.9,3.97-3.97-1.58-1.07-2.9-2.38-3.97-3.97-1.07,1.58-2.38,2.89-3.97,3.97Z"/></g><g><circle cx="1208.91" cy="798.9" r="149.67"/><path d="m1208.91,952.47c-84.68,0-153.58-68.89-153.58-153.58s68.89-153.58,153.58-153.58,153.58,68.89,153.58,153.58-68.89,153.58-153.58,153.58Zm0-299.34c-80.37,0-145.76,65.39-145.76,145.76s65.39,145.76,145.76,145.76,145.76-65.39,145.76-145.76-65.39-145.76-145.76-145.76Z"/></g><g class="cls-2"><g><circle class="cls-3" cx="1165.05" cy="728.54" r="167.28"/><path d="m1165.05,899.73c-94.39,0-171.19-76.79-171.19-171.19s76.79-171.19,171.19-171.19,171.19,76.79,171.19,171.19-76.79,171.19-171.19,171.19Zm0-334.56c-90.08,0-163.37,73.29-163.37,163.37s73.29,163.37,163.37,163.37,163.37-73.29,163.37-163.37-73.29-163.37-163.37-163.37Z"/></g></g><path d="m1208.91,952.47c-84.68,0-153.58-68.89-153.58-153.58s68.89-153.58,153.58-153.58,153.58,68.89,153.58,153.58-68.89,153.58-153.58,153.58Zm0-299.34c-80.37,0-145.76,65.39-145.76,145.76s65.39,145.76,145.76,145.76,145.76-65.39,145.76-145.76-65.39-145.76-145.76-145.76Z"/><path d="m1221.91,715.18c-.32,0-.64-.04-.96-.12-2.09-.53-3.36-2.66-2.83-4.75l48.45-191.37c.53-2.09,2.66-3.36,4.75-2.83,2.09.53,3.36,2.66,2.83,4.75l-48.45,191.37c-.45,1.77-2.04,2.95-3.79,2.95Z"/><g><polygon class="cls-3" points="1435.24 651.67 1242.26 602.81 1259.08 536.37 1452.07 585.23 1416.37 611.54 1435.24 651.67"/><path d="m1435.24,656.01c-.35,0-.71-.04-1.06-.13l-192.99-48.86c-1.12-.28-2.07-1-2.66-1.98-.59-.99-.76-2.17-.48-3.28l16.82-66.45c.59-2.32,2.94-3.73,5.27-3.14l192.99,48.86c1.63.41,2.87,1.72,3.19,3.37.32,1.65-.33,3.33-1.68,4.32l-32.83,24.2,17.36,36.91c.71,1.52.49,3.31-.58,4.6-.83,1.01-2.07,1.58-3.35,1.58Zm-187.72-56.34l179.89,45.55-14.97-31.83c-.88-1.87-.32-4.11,1.35-5.34l28.31-20.87-179.89-45.54-14.7,58.04Z"/></g><g><g><g><rect class="cls-3" x="155.43" y="406.82" width="209.77" height="176.62" rx="23.3" ry="23.3" transform="translate(447.06 -32.17) rotate(47.24)"/><path d="m268,626.36c-7.33,0-14.63-2.93-19.99-8.72l-110.79-119.79c-4.94-5.34-7.5-12.28-7.21-19.54.28-7.26,3.38-13.98,8.72-18.92l95.45-88.28c11.02-10.19,28.27-9.52,38.46,1.5l110.79,119.79c4.94,5.34,7.5,12.28,7.21,19.54-.28,7.26-3.38,13.98-8.72,18.92l-95.45,88.28c-5.23,4.83-11.86,7.22-18.47,7.22Zm-15.35-254.65c-4.71,0-9.44,1.7-13.16,5.15l-95.45,88.28c-3.8,3.52-6.01,8.31-6.21,13.48-.2,5.18,1.62,10.12,5.14,13.93l110.79,119.79c3.52,3.8,8.31,6.01,13.48,6.21,5.18.21,10.12-1.62,13.93-5.14l95.45-88.28c3.8-3.52,6.01-8.31,6.21-13.48.2-5.18-1.62-10.12-5.14-13.93l-110.79-119.79c-3.82-4.13-9.03-6.22-14.25-6.22Z"/></g><g><g><g><path class="cls-3" d="m397.48,489.26l10.32,6.08c6.2,3.66,13.1,3.47,17.36-.47l24.4-22.56c4.26-3.94,4.98-10.81,1.82-17.27l-5.26-10.76"/><path d="m416.8,501.84c-3.62,0-7.43-1.04-10.99-3.14l-10.32-6.08c-1.86-1.1-2.48-3.49-1.38-5.35,1.1-1.86,3.49-2.48,5.35-1.38l10.32,6.08c4.66,2.75,9.77,2.76,12.72.03l24.4-22.56c2.95-2.73,3.34-7.83.96-12.68l-5.26-10.76c-.95-1.94-.15-4.28,1.79-5.23,1.94-.95,4.28-.15,5.23,1.79l5.26,10.76c3.9,7.98,2.83,16.76-2.68,21.85l-24.4,22.56c-2.94,2.72-6.85,4.1-11.01,4.1Z"/></g><g><path class="cls-3" d="m276.87,358.85l-5.26-10.76c-3.16-6.46-2.44-13.33,1.82-17.27l24.4-22.56c4.26-3.94,11.16-4.12,17.36-.47l10.32,6.08"/><path d="m276.87,362.75c-1.45,0-2.84-.81-3.51-2.19l-5.26-10.76c-3.9-7.98-2.83-16.76,2.67-21.86l24.4-22.56c5.5-5.09,14.34-5.48,22-.96l10.32,6.08c1.86,1.1,2.48,3.49,1.38,5.35-1.09,1.86-3.49,2.48-5.35,1.38l-10.32-6.08c-4.66-2.75-9.77-2.76-12.72-.03l-24.4,22.56c-2.95,2.73-3.34,7.83-.96,12.68l5.26,10.76c.95,1.94.15,4.28-1.79,5.23-.55.27-1.14.4-1.71.4Z"/></g></g><g><circle class="cls-3" cx="365.98" cy="397.41" r="94.1"/><path d="m366.07,495.42c-1.3,0-2.61-.03-3.92-.08-26.16-1.02-50.36-12.17-68.13-31.39-17.78-19.22-27-44.21-25.98-70.37,1.02-26.16,12.17-50.36,31.39-68.13,19.22-17.78,44.21-27.02,70.37-25.98,26.16,1.02,50.36,12.17,68.13,31.39,17.78,19.22,27,44.21,25.98,70.37-1.02,26.16-12.17,50.36-31.39,68.13h0c-18.26,16.89-41.73,26.06-66.46,26.06Zm-.18-188.21c-22.76,0-44.35,8.44-61.16,23.98-17.69,16.36-27.95,38.63-28.88,62.7-.94,24.07,7.55,47.07,23.91,64.76,16.36,17.69,38.62,27.95,62.7,28.89,24.07.93,47.07-7.55,64.76-23.91,17.69-16.36,27.95-38.63,28.88-62.7s-7.55-47.07-23.91-64.76c-16.36-17.69-38.62-27.95-62.7-28.89-1.2-.05-2.41-.07-3.6-.07Zm63.98,159.28h0,0Z"/></g><g><ellipse cx="356.98" cy="405.71" rx="51.57" ry="91.7" transform="translate(-180.57 350.24) rotate(-42.76)"/><path d="m394.85,485.54c-6.72,0-14.05-1.24-21.82-3.75-19.54-6.3-39.7-19.95-56.78-38.41-17.08-18.47-29.11-39.63-33.87-59.6-4.95-20.76-1.51-37.9,9.68-48.25,11.19-10.35,28.55-12.45,48.86-5.89,19.54,6.3,39.7,19.95,56.78,38.41,17.08,18.47,29.11,39.63,33.87,59.6,4.95,20.76,1.51,37.9-9.68,48.25-6.91,6.4-16.18,9.64-27.04,9.64Zm-75.73-151.84c-8.88,0-16.33,2.54-21.76,7.56-9.03,8.35-11.65,22.81-7.39,40.7,4.46,18.69,15.82,38.61,32,56.11,16.18,17.5,35.16,30.38,53.45,36.28,17.51,5.65,32.12,4.16,41.15-4.19,9.03-8.35,11.65-22.81,7.38-40.7-4.46-18.69-15.82-38.61-32-56.11-16.18-17.5-35.16-30.38-53.45-36.28-6.98-2.25-13.5-3.37-19.39-3.37Z"/></g><path d="m399.7,476.83c-5.85,0-12.02-.77-18.42-2.34-20.91-5.12-41.87-18.14-59.01-36.68-17.15-18.54-28.5-40.45-31.97-61.69-3.57-21.83,1.57-40.42,14.46-52.34,12.89-11.92,31.83-15.59,53.31-10.34,20.91,5.12,41.87,18.14,59.01,36.68,17.15,18.54,28.5,40.45,31.97,61.69,3.57,21.83-1.57,40.42-14.46,52.34h0c-9.05,8.37-21.08,12.68-34.89,12.68Zm-59.91-157.94c-11.58,0-21.94,3.43-29.73,10.63-22.97,21.25-14.93,67.45,17.94,102.99,16.12,17.42,35.7,29.64,55.13,34.39,18.85,4.61,35.24,1.6,46.15-8.48h0c10.9-10.08,15.18-26.19,12.05-45.34-3.23-19.75-13.88-40.22-29.99-57.64-21.73-23.5-48.95-36.54-71.55-36.54Z"/></g><g><polyline class="cls-3" points="271.88 398.31 177.58 350.41 154.9 384.83 209.07 434.85"/><path d="m209.07,438.76c-.95,0-1.9-.34-2.65-1.04l-54.17-50.02c-1.41-1.3-1.67-3.42-.61-5.02l22.68-34.43c1.09-1.66,3.26-2.23,5.03-1.33l94.29,47.91c1.92.98,2.69,3.33,1.71,5.25-.98,1.92-3.33,2.69-5.25,1.71l-91.18-46.32-18.93,28.74,51.73,47.77c1.59,1.46,1.68,3.94.22,5.52-.77.83-1.82,1.26-2.87,1.26Z"/></g><g><polyline class="cls-3" points="360.32 493.94 400.73 591.68 364.64 611.61 319 553.71"/><path d="m364.64,615.52c-1.17,0-2.31-.52-3.07-1.49l-45.64-57.9c-1.34-1.7-1.05-4.15.65-5.49,1.69-1.34,4.15-1.05,5.49.65l43.59,55.3,30.13-16.64-39.08-94.52c-.82-2,.12-4.28,2.12-5.11,1.99-.82,4.28.12,5.11,2.12l40.41,97.74c.76,1.84.02,3.95-1.72,4.92l-36.09,19.93c-.6.33-1.25.49-1.89.49Z"/></g><g><g><g><path class="cls-3" d="m230.21,421.53l-180.66,113.85-8.52-10.65c-6.38-7.97-17.6-10.15-26.5-5.15h0c-10.54,5.93-13.84,19.55-7.19,29.64l30.3,45.99c5.79,8.78,16.99,12.23,26.72,8.21l96.27-39.78"/><path d="m56.01,608.99c-8.49,0-16.73-4.19-21.63-11.63l-30.3-45.99c-3.76-5.71-5-12.81-3.39-19.46s5.96-12.39,11.92-15.74c10.62-5.97,23.85-3.41,31.47,6.11l6.34,7.92,177.7-111.98c1.83-1.15,4.24-.6,5.39,1.22s.6,4.24-1.22,5.39l-180.66,113.84c-1.68,1.06-3.89.69-5.14-.86l-8.52-10.65c-5.21-6.51-14.26-8.27-21.53-4.18-4.14,2.33-7.04,6.16-8.16,10.77s-.3,9.34,2.32,13.31l30.3,45.99c4.75,7.21,13.98,10.04,21.96,6.75l96.27-39.78c1.99-.83,4.28.12,5.1,2.12.82,2-.12,4.28-2.12,5.1l-96.27,39.78c-3.2,1.32-6.54,1.96-9.84,1.96Z"/></g><g><path class="cls-3" d="m331.34,530.89l-127.58,171.23,9.95,9.32c7.45,6.98,8.75,18.34,3.07,26.82h0c-6.73,10.04-20.57,12.28-30.11,4.86l-43.49-33.8c-8.31-6.46-10.87-17.9-6.1-27.28l47.16-92.88"/><path d="m199.49,751.41c-5.47,0-10.85-1.82-15.22-5.21l-43.49-33.8c-9.77-7.59-12.79-21.1-7.19-32.13l47.16-92.88c.98-1.92,3.33-2.69,5.25-1.72,1.92.98,2.69,3.33,1.72,5.25l-47.16,92.88c-3.91,7.7-1.8,17.12,5.02,22.42l43.49,33.8c3.75,2.91,8.4,4.1,13.09,3.35,4.69-.76,8.73-3.35,11.38-7.29,4.64-6.93,3.59-16.09-2.49-21.79l-9.95-9.33c-1.45-1.36-1.65-3.59-.46-5.19l127.58-171.23c1.29-1.73,3.74-2.09,5.47-.8,1.73,1.29,2.09,3.74.8,5.47l-125.49,168.43,7.4,6.94c8.89,8.33,10.42,21.72,3.64,31.85-3.81,5.68-9.87,9.57-16.62,10.66-1.3.21-2.61.31-3.92.31Z"/></g></g><g><path class="cls-3" d="m158.58,535.94c-2.8,10.41,2.83,26.11,15.07,39.35,12.25,13.24,27.46,20.07,38.06,18.09"/><path d="m207.86,597.63c-11.61,0-25.66-7.34-37.08-19.69-12.96-14.02-19.24-30.9-15.98-43.02.56-2.08,2.71-3.32,4.79-2.76,2.08.56,3.32,2.71,2.76,4.79-2.5,9.29,3.33,23.96,14.17,35.68,10.84,11.72,25,18.66,34.47,16.9,2.12-.4,4.16,1,4.56,3.12.4,2.12-1,4.16-3.12,4.56-1.47.27-3,.41-4.57.41Z"/></g></g><polygon class="cls-3" points="206.59 517.48 172.33 523.22 165.78 546.51 171.68 561.63 184.7 575.7 203.64 587.45 228.44 577.9 235.43 541.82 206.59 517.48"/><g><rect class="cls-3" x="205.47" y="478.34" width="76.43" height="64.35" rx="8.49" ry="8.49" transform="translate(453.02 -15.02) rotate(47.24)"/><path d="m246.49,560.81c-.17,0-.33,0-.5,0-3.31-.13-6.37-1.54-8.62-3.97l-40.36-43.64c-2.25-2.43-3.42-5.59-3.29-8.9.13-3.31,1.54-6.37,3.97-8.62l34.78-32.16c2.43-2.25,5.59-3.4,8.9-3.29,3.31.13,6.37,1.54,8.62,3.97l40.36,43.64c4.64,5.02,4.33,12.88-.68,17.52l-34.78,32.16c-2.31,2.14-5.28,3.3-8.41,3.3Zm-5.6-92.79c-1.16,0-2.25.43-3.11,1.22l-34.78,32.16c-.9.83-1.42,1.96-1.47,3.19-.05,1.22.38,2.39,1.21,3.29l40.36,43.64h0c.83.9,1.96,1.42,3.19,1.47,1.21.02,2.39-.38,3.29-1.21l34.78-32.16c1.85-1.72,1.97-4.62.25-6.48l-40.36-43.64c-.83-.9-1.96-1.42-3.19-1.47-.06,0-.12,0-.18,0Z"/></g><g><path class="cls-3" d="m240.64,507.22c-3.73,3.45-9.56,3.23-13.01-.51-3.45-3.73-3.23-9.56.51-13.01,3.73-3.45,9.56-3.23,13.01.51,3.45,3.73,3.23,9.56-.51,13.01Z"/><path d="m234.4,513.57c-3.53,0-7.05-1.41-9.64-4.21-4.91-5.31-4.58-13.62.72-18.53,2.57-2.38,5.92-3.61,9.42-3.48,3.5.14,6.74,1.63,9.12,4.2,2.38,2.57,3.61,5.92,3.48,9.42s-1.63,6.74-4.2,9.12t0,0c-2.52,2.33-5.71,3.48-8.9,3.48Zm6.25-6.35h0,0Zm-6.25-12.06c-1.29,0-2.58.46-3.6,1.41-2.15,1.98-2.28,5.34-.29,7.49,1.98,2.15,5.34,2.28,7.49.29,2.14-1.98,2.28-5.34.29-7.49-1.04-1.13-2.47-1.7-3.89-1.7Z"/></g><path d="m246.36,540.41c-1.05,0-2.1-.42-2.87-1.25-1.47-1.58-1.37-4.06.22-5.52l23.03-21.3c1.58-1.47,4.06-1.37,5.52.22,1.47,1.58,1.37,4.06-.22,5.52l-23.03,21.3c-.75.7-1.7,1.04-2.65,1.04Z"/><path d="m236.81,530.08c-1.05,0-2.1-.42-2.87-1.25-1.47-1.58-1.37-4.06.22-5.52l23.03-21.3c1.58-1.47,4.06-1.37,5.52.22s1.37,4.06-.22,5.52l-23.03,21.3c-.75.7-1.7,1.04-2.65,1.04Z"/><g><path class="cls-3" d="m151.67,328.15h6.97c11.62,0,21.05,9.43,21.05,21.05v13.95c0,11.62-9.43,21.05-21.05,21.05h-6.97c-15.47,0-28.03-12.56-28.03-28.03h0c0-15.47,12.56-28.03,28.03-28.03Z" transform="translate(218.08 -25.21) rotate(32.94)"/><path d="m153.68,390.79c-4.76,0-9.43-1.37-13.52-4.02l-5.85-3.79c-14.78-9.58-19.01-29.39-9.43-44.17,9.58-14.78,29.39-19.01,44.17-9.43l5.85,3.79c5.59,3.63,9.44,9.21,10.84,15.73,1.39,6.52.16,13.19-3.46,18.79l-7.59,11.71c-3.63,5.59-9.21,9.44-15.73,10.84-1.75.37-3.51.56-5.26.56Zm-1.97-58.73c-7.91,0-15.67,3.88-20.28,11-7.23,11.16-4.04,26.12,7.12,33.36l5.85,3.79h0c3.84,2.49,8.42,3.33,12.9,2.38,4.48-.96,8.32-3.6,10.81-7.44l7.59-11.71c2.49-3.84,3.33-8.43,2.38-12.9-.96-4.48-3.6-8.32-7.44-10.81l-5.85-3.79c-4.04-2.62-8.58-3.87-13.08-3.87Z"/></g><g><path class="cls-3" d="m392.6,588.65h6.97c11.62,0,21.05,9.43,21.05,21.05v13.95c0,11.62-9.43,21.05-21.05,21.05h-6.97c-15.47,0-28.03-12.56-28.03-28.03h0c0-15.47,12.56-28.03,28.03-28.03Z" transform="translate(37.69 1255.78) rotate(-118.47)"/><path d="m392.65,648.61c-11.35,0-22.35-6.05-28.13-16.71l-3.33-6.13c-3.18-5.86-3.89-12.61-1.99-19,1.9-6.39,6.17-11.66,12.03-14.84l12.26-6.65c12.1-6.56,27.28-2.06,33.84,10.04l3.32,6.13c8.4,15.48,2.63,34.9-12.85,43.3-4.83,2.62-10.03,3.86-15.17,3.86Zm2.72-58.53c-2.76,0-5.55.67-8.14,2.07l-12.26,6.65c-4.03,2.18-6.96,5.8-8.26,10.19s-.82,9.03,1.37,13.05h0l3.33,6.13c6.34,11.69,21.01,16.04,32.7,9.7,5.66-3.07,9.79-8.17,11.62-14.34,1.83-6.18,1.15-12.7-1.92-18.36l-3.32-6.13c-3.1-5.72-9.01-8.97-15.1-8.97Z"/></g></g><g><g><rect class="cls-3" x="646.99" y="618.19" width="122.51" height="29.99" transform="translate(-126.23 179.11) rotate(-13.24)"/><path d="m652.06,665.72c-.72,0-1.43-.2-2.06-.58-.88-.55-1.51-1.42-1.75-2.43l-6.87-29.19c-.49-2.1.81-4.21,2.91-4.7l119.25-28.07c1.01-.24,2.07-.06,2.95.48s1.51,1.42,1.75,2.43l6.87,29.19c.49,2.1-.81,4.21-2.91,4.7l-119.25,28.07c-.3.07-.6.1-.9.1Zm-2.17-30.19l5.08,21.58,111.64-26.28-5.08-21.58-111.64,26.28Z"/></g><g><polygon class="cls-3" points="764.44 604.56 645.19 632.62 656.44 526.89 707.21 514.94 764.44 604.56"/><path d="m645.19,636.53c-.94,0-1.86-.34-2.59-.98-.95-.84-1.43-2.08-1.3-3.34l11.25-105.73c.18-1.65,1.38-3.01,2.99-3.39l50.77-11.95c1.62-.39,3.3.3,4.19,1.7l57.23,89.61c.68,1.07.8,2.4.33,3.57-.48,1.17-1.49,2.04-2.73,2.33l-119.25,28.07c-.3.07-.6.1-.9.1Zm14.84-106.47l-10.37,97.5,108.52-25.54-52.77-82.63-45.37,10.68Z"/></g><g><polygon class="cls-3" points="746.97 683.51 696.04 695.5 700.84 650.33 722.53 645.23 746.97 683.51"/><path d="m696.04,699.4c-.94,0-1.86-.34-2.59-.98-.95-.84-1.43-2.08-1.3-3.34l4.81-45.16c.18-1.65,1.38-3.01,2.99-3.39l21.68-5.1c1.62-.39,3.3.3,4.19,1.7l24.45,38.28c.68,1.07.8,2.4.33,3.57-.48,1.17-1.49,2.04-2.73,2.33l-50.94,11.99c-.3.07-.6.1-.9.1Zm8.4-45.9l-3.93,36.92,40.21-9.46-19.99-31.3-16.29,3.83Z"/></g><g><path d="m694.12,599.21c-11.8,0-22.52-8.1-25.34-20.07-3.29-13.97,5.4-28.01,19.37-31.3,13.97-3.28,28.01,5.4,31.3,19.37h0c1.59,6.77.46,13.75-3.2,19.66s-9.4,10.05-16.17,11.64c-2,.47-4,.7-5.96.7Zm0-44.25c-1.38,0-2.78.16-4.17.49-9.78,2.3-15.86,12.13-13.56,21.9s12.13,15.86,21.9,13.56c4.74-1.11,8.75-4.01,11.31-8.14,2.56-4.14,3.36-9.02,2.24-13.76h0c-1.97-8.38-9.47-14.04-17.73-14.04Z"/><g class="cls-6"><circle cx="703.97" cy="577.23" r="22.12"/></g></g></g><g><path class="cls-3" d="m137.11,888.89c-43.83-21.6-77.19-54.54-92.77-92.12-17.8-42.94-14.47-97.11,9.15-148.61,32.48-70.83,97.71-126.79,178.98-153.54,3.23-1.06,6.71.69,7.77,3.92,1.06,3.23-.69,6.71-3.92,7.77-78.02,25.68-140.58,79.25-171.64,146.98-22.19,48.4-25.46,98.98-8.97,138.77,16.1,38.83,53.05,72.49,101.37,92.35,50.27,20.65,104.5,22.8,145.07,5.74,73.25-30.81,112.91-91.27,151.26-149.74,23.38-35.65,45.47-69.32,74.4-95.99,61.49-56.69,130.1-72.79,165.52-77.34,3.37-.43,6.46,1.95,6.89,5.32.43,3.37-1.95,6.46-5.32,6.89-33.97,4.36-99.76,19.8-158.74,74.18-27.81,25.64-49.5,58.7-72.45,93.69-39.37,60.01-80.07,122.07-156.79,154.34-43.52,18.3-101.29,16.17-154.52-5.7-5.23-2.15-10.33-4.45-15.3-6.9Z"/><path d="m234.4,494.31c2.59,0,4.99,1.64,5.84,4.23,1.06,3.23-.69,6.71-3.92,7.77-78.02,25.68-140.58,79.25-171.64,146.98-22.19,48.4-25.46,98.98-8.97,138.77,16.1,38.83,53.05,72.49,101.37,92.35,27.76,11.41,56.73,17.17,83.93,17.17,22.06,0,42.97-3.79,61.14-11.43,73.25-30.81,112.91-91.27,151.26-149.74,23.38-35.65,45.47-69.32,74.4-95.99,61.49-56.69,130.1-72.79,165.52-77.34.27-.03.53-.05.79-.05,3.05,0,5.7,2.27,6.1,5.37.43,3.37-1.95,6.46-5.32,6.89-33.97,4.36-99.76,19.8-158.74,74.18-27.81,25.64-49.5,58.7-72.45,93.69-39.37,60.01-80.07,122.07-156.79,154.34-19.64,8.26-42.19,12.36-65.91,12.36-28.84,0-59.4-6.06-88.61-18.06-5.23-2.15-10.33-4.45-15.3-6.9-43.83-21.6-77.19-54.54-92.77-92.12-17.8-42.94-14.47-97.11,9.15-148.61,32.48-70.83,97.71-126.79,178.98-153.54.64-.21,1.29-.31,1.93-.31m0-7.82c-1.49,0-2.96.24-4.38.7-83.32,27.42-150.26,84.91-183.64,157.71-24.52,53.47-27.9,109.92-9.26,154.86,8.14,19.63,20.76,38,37.51,54.61,16.55,16.41,36.41,30.38,59.03,41.53,5.12,2.52,10.43,4.92,15.78,7.12,29.69,12.2,61.36,18.64,91.59,18.64,25.28,0,48.47-4.36,68.94-12.97,78.91-33.19,120.28-96.26,160.29-157.25,22.68-34.58,44.11-67.25,71.21-92.24,57.39-52.91,121.39-67.93,154.44-72.17,3.7-.48,7-2.36,9.28-5.32,2.28-2.95,3.28-6.62,2.8-10.32-.89-6.95-6.85-12.19-13.85-12.19-.59,0-1.2.04-1.79.11-36.34,4.67-106.73,21.18-169.82,79.34-29.63,27.32-51.97,61.38-75.62,97.43-37.73,57.51-76.72,116.96-147.77,146.84-17.07,7.18-36.62,10.82-58.11,10.82-26.57,0-54.56-5.73-80.96-16.58-46.42-19.07-81.82-51.19-97.12-88.11-15.66-37.79-12.44-86.09,8.85-132.52,30.15-65.75,91.01-117.81,166.97-142.81,7.32-2.41,11.31-10.32,8.9-17.64-1.89-5.74-7.22-9.61-13.27-9.61h0Z"/></g></g><g><g><circle class="cls-3" cx="1460.63" cy="43.75" r="30.74"/><path d="m1460.6,78.41c-3.93,0-7.92-.67-11.82-2.09-17.95-6.54-27.24-26.46-20.71-44.41,3.17-8.7,9.53-15.64,17.92-19.55s17.8-4.32,26.5-1.16c17.95,6.53,27.24,26.46,20.71,44.41-5.12,14.05-18.44,22.8-32.6,22.8Zm.02-61.5c-3.87,0-7.72.85-11.32,2.53-6.5,3.03-11.42,8.41-13.88,15.14h0c-5.06,13.9,2.13,29.33,16.04,34.39,13.9,5.06,29.33-2.14,34.39-16.04,5.06-13.9-2.13-29.33-16.04-34.39-2.99-1.09-6.1-1.63-9.19-1.63Zm-28.87,16.33h0,0Z"/></g><path d="m1526.56,16.94h-64.59c-2.16,0-3.91-1.75-3.91-3.91s1.75-3.91,3.91-3.91h64.59c2.16,0,3.91,1.75,3.91,3.91s-1.75,3.91-3.91,3.91Z"/><path d="m1491.38,113.6c-.89,0-1.78-.3-2.51-.91l-49.48-41.52c-1.65-1.39-1.87-3.85-.48-5.51,1.39-1.65,3.85-1.87,5.51-.48l49.48,41.52c1.65,1.39,1.87,3.85.48,5.51-.77.92-1.88,1.4-3,1.4Z"/><path d="m1527.87,73.33c-.49,0-.98-.09-1.46-.29l-59.89-24.2c-2-.81-2.97-3.09-2.16-5.09.81-2,3.09-2.97,5.09-2.16l59.89,24.2c2,.81,2.97,3.09,2.16,5.09-.62,1.52-2.08,2.45-3.62,2.45Z"/></g><g><g><circle class="cls-3" cx="1773.87" cy="983.87" r="30.74"/><path d="m1773.89,1018.54c-3.94,0-7.9-.68-11.72-2.05-8.71-3.12-15.69-9.45-19.64-17.82-3.95-8.37-4.41-17.78-1.28-26.49,6.45-17.98,26.33-27.37,44.31-20.92h0c17.99,6.45,27.37,26.33,20.92,44.31-3.12,8.71-9.45,15.69-17.82,19.64-4.7,2.22-9.72,3.33-14.77,3.33Zm0-61.5c-11.01,0-21.36,6.83-25.29,17.78-2.42,6.75-2.07,14.03.99,20.51,3.06,6.48,8.46,11.38,15.21,13.8,6.75,2.42,14.03,2.07,20.51-.99,6.48-3.06,11.38-8.46,13.8-15.21,2.42-6.75,2.07-14.03-.99-20.51-3.06-6.48-8.46-11.38-15.21-13.8-2.98-1.07-6.03-1.58-9.03-1.58Z"/></g><path d="m1804.91,1053.56c-2.15,0-3.9-1.74-3.91-3.89l-.31-64.59c-.01-2.16,1.73-3.92,3.89-3.93h.02c2.15,0,3.9,1.74,3.91,3.89l.31,64.59c.01,2.16-1.73,3.92-3.89,3.93h-.02Z"/><path d="m1708.07,1018.84c-.88,0-1.77-.3-2.5-.9-1.66-1.38-1.89-3.84-.51-5.5l41.28-49.68c1.38-1.66,3.84-1.89,5.5-.51,1.66,1.38,1.89,3.84.51,5.5l-41.28,49.68c-.77.93-1.89,1.41-3.01,1.41Z"/><path d="m1748.52,1055.14c-.48,0-.97-.09-1.45-.28-2-.8-2.98-3.07-2.18-5.08l23.91-60c.8-2,3.08-2.98,5.08-2.18,2,.8,2.98,3.07,2.18,5.08l-23.91,60c-.61,1.53-2.08,2.46-3.63,2.46Z"/></g><g><g><circle class="cls-3" cx="857.93" cy="1002.42" r="30.74"/><path d="m858,1037.07c-1.15,0-2.31-.06-3.48-.17-9.21-.91-17.51-5.36-23.38-12.51-5.87-7.16-8.6-16.17-7.69-25.38.91-9.21,5.36-17.51,12.51-23.38h0c7.16-5.87,16.17-8.6,25.38-7.69,9.21.91,17.51,5.36,23.38,12.51,5.87,7.16,8.6,16.17,7.69,25.38-.91,9.21-5.36,17.51-12.51,23.38-6.25,5.13-13.92,7.86-21.9,7.86Zm-.11-61.49c-6.18,0-12.12,2.12-16.96,6.08h0c-5.54,4.54-8.98,10.97-9.69,18.11-.71,7.13,1.41,14.11,5.95,19.66,9.38,11.44,26.32,13.12,37.76,3.74,5.54-4.54,8.98-10.98,9.69-18.11.71-7.13-1.41-14.11-5.95-19.66s-10.97-8.98-18.11-9.69c-.9-.09-1.8-.13-2.69-.13Zm-19.44,3.06h0,0Z"/></g><path d="m930.31,1013.51c-.68,0-1.36-.18-1.99-.55l-55.57-32.93c-1.86-1.1-2.47-3.5-1.37-5.36,1.1-1.86,3.5-2.47,5.36-1.37l55.57,32.93c1.86,1.1,2.47,3.5,1.37,5.36-.73,1.23-2.03,1.92-3.37,1.92Z"/><path d="m850.76,1078.73c-1.61,0-3.12-1.01-3.69-2.61l-21.4-60.95c-.71-2.04.36-4.27,2.39-4.98,2.04-.71,4.27.36,4.98,2.39l21.4,60.95c.71,2.04-.36,4.27-2.39,4.98-.43.15-.87.22-1.29.22Z"/><path d="m902.69,1062.69c-1.18,0-2.34-.53-3.11-1.54l-39.18-51.35c-1.31-1.72-.98-4.17.74-5.48,1.72-1.31,4.17-.98,5.48.74l39.18,51.35c1.31,1.72.98,4.17-.74,5.48-.71.54-1.54.8-2.37.8Z"/></g><g><path d="m1126.35,815.58c-16.77,0-30.42-13.65-30.42-30.42s13.65-30.42,30.42-30.42,30.42,13.65,30.42,30.42-13.65,30.42-30.42,30.42Zm0-53.03c-12.46,0-22.61,10.14-22.61,22.61s10.14,22.61,22.61,22.61,22.61-10.14,22.61-22.61-10.14-22.61-22.61-22.61Z"/><g class="cls-9"><circle cx="1143.04" cy="794.7" r="26.51"/></g></g><g><path d="m1226.01,854.29c-13.25,0-24.03-10.78-24.03-24.03s10.78-24.03,24.03-24.03,24.03,10.78,24.03,24.03-10.78,24.03-24.03,24.03Zm0-40.25c-8.94,0-16.22,7.28-16.22,16.22s7.27,16.22,16.22,16.22,16.22-7.28,16.22-16.22-7.28-16.22-16.22-16.22Z"/><g class="cls-8"><circle cx="1238.68" cy="837.5" r="20.12"/></g></g><g><path d="m1216.97,757.27c-20.34,0-36.89-16.55-36.89-36.89s16.55-36.89,36.89-36.89,36.89,16.55,36.89,36.89-16.55,36.89-36.89,36.89Zm0-65.96c-16.03,0-29.07,13.04-29.07,29.07s13.04,29.07,29.07,29.07,29.07-13.04,29.07-29.07-13.04-29.07-29.07-29.07Z"/><g class="cls-7"><circle cx="1237.74" cy="732.25" r="32.98"/></g></g></g><g><path d="m1298.77,570.72h31.21v15.61c0,8.61-6.99,15.61-15.61,15.61h0c-8.61,0-15.61-6.99-15.61-15.61v-15.61h0Z" transform="translate(184.12 -304.67) rotate(14.21)"/><path d="m1329.8,605.54l30.26,7.66,3.64-14.39c2.12-8.36-2.94-16.84-11.3-18.96l-15.13-3.83-7.47,29.52Z"/><rect x="1365.68" y="587.66" width="31.21" height="31.21" rx="15.61" ry="15.61" transform="translate(190.32 -320.57) rotate(14.21)"/><path d="m1284.27,562.61c-1.94,7.68-9.75,12.33-17.43,10.39l-4.14,16.35c16.71,4.23,33.69-5.89,37.92-22.6h0s-16.35-4.14-16.35-4.14Z"/><circle class="cls-5" cx="1395.92" cy="600.83" r="9.65"/></g></g></g></svg>