<?xml version="1.0" encoding="UTF-8"?><svg id="uuid-1ef08fc8-c05d-4fc0-8a18-d1abe574c381" xmlns="http://www.w3.org/2000/svg" viewBox="0 0 185.31 40.84"><defs><style>.uuid-c2911187-66d3-41e8-990f-2b8cb06e2758{fill:#7888ff;}.uuid-c2911187-66d3-41e8-990f-2b8cb06e2758,.uuid-a5f67061-2e68-4d1f-a452-e5499cee465d{stroke-width:0px;}.uuid-a5f67061-2e68-4d1f-a452-e5499cee465d{fill:#fff;}</style></defs><g id="uuid-1f21f4ab-341f-425a-847b-fa38fb37e6e7"><path class="uuid-a5f67061-2e68-4d1f-a452-e5499cee465d" d="M44.16,0h40.84v20.42c0,11.27-9.15,20.42-20.42,20.42h0c-11.27,0-20.42-9.15-20.42-20.42V0h0Z"/><path class="uuid-a5f67061-2e68-4d1f-a452-e5499cee465d" d="M90.31,39.84h40.84v-19.42c0-11.28-9.14-20.42-20.42-20.42h-20.42s0,39.84,0,39.84Z"/><rect class="uuid-a5f67061-2e68-4d1f-a452-e5499cee465d" x="134.47" y="0" width="40.84" height="40.84" rx="20.42" ry="20.42"/><path class="uuid-a5f67061-2e68-4d1f-a452-e5499cee465d" d="M18.77,0c0,10.37-8.41,18.78-18.77,18.78v22.07C22.56,40.84,40.84,22.56,40.84,0h0s-22.07,0-22.07,0Z"/><circle class="uuid-c2911187-66d3-41e8-990f-2b8cb06e2758" cx="172.69" cy="12.63" r="12.63"/></g></svg>