<svg xmlns="http://www.w3.org/2000/svg" viewBox="0 0 468 515.45">
  <defs>
    <style>
      .de6de7af29f5,.fcdf2ad1bd2d{stroke-width:0}.fcdf2ad1bd2d{fill:#fff}
    </style>
  </defs>
  <path d="M466 515.45c0-114.09-92.82-206.91-206.91-206.91S52.18 401.36 52.18 515.45" class="fcdf2ad1bd2d"/>
  <path d="M468 515.45h-4c0-112.99-91.92-204.91-204.91-204.91S54.18 402.46 54.18 515.45h-4c0-115.2 93.72-208.91 208.91-208.91S468 400.26 468 515.45Z" class="de6de7af29f5"/>
  <rect width="9.86" height="361.17" x="159.36" y="2" class="fcdf2ad1bd2d" rx="4.93" ry="4.93"/>
  <path d="M164.29 365.17a6.94 6.94 0 0 1-6.93-6.93V6.93a6.94 6.94 0 0 1 13.86 0v351.32a6.94 6.94 0 0 1-6.93 6.93Zm0-361.17a2.93 2.93 0 0 0-2.93 2.93v351.32a2.93 2.93 0 1 0 5.86 0V6.93A2.93 2.93 0 0 0 164.29 4Z" class="de6de7af29f5"/>
  <rect width="135.88" height="152.8" x="230.6" y="150.42" class="fcdf2ad1bd2d" rx="17.46" ry="17.46" transform="rotate(95 298.54 226.81)"/>
  <path d="M352.83 301.76c-.58 0-1.16-.03-1.75-.08l-117.41-10.39a19.37 19.37 0 0 1-13.21-6.89 19.37 19.37 0 0 1-4.47-14.21l8.9-100.56a19.37 19.37 0 0 1 6.89-13.21 19.33 19.33 0 0 1 14.21-4.46l117.41 10.39c5.18.46 9.87 2.91 13.21 6.89a19.31 19.31 0 0 1 4.46 14.21l-8.9 100.56a19.37 19.37 0 0 1-6.89 13.21 19.33 19.33 0 0 1-12.46 4.54Zm-132.85-31.22a15.4 15.4 0 0 0 3.55 11.29 15.33 15.33 0 0 0 10.49 5.47l117.41 10.39c4.12.36 8.12-.9 11.29-3.55a15.38 15.38 0 0 0 5.48-10.49l8.9-100.56a15.4 15.4 0 0 0-3.55-11.29 15.38 15.38 0 0 0-10.49-5.48l-117.41-10.39c-4.12-.36-8.12.89-11.29 3.55a15.38 15.38 0 0 0-5.48 10.49l-8.9 100.56Zm-86.99 138.34c-11.66 0-21.15 9.49-21.15 21.14s9.49 21.14 21.15 21.14 21.14-9.49 21.14-21.14-9.49-21.14-21.14-21.14Zm-17.15 21.15c0-9.45 7.69-17.14 17.15-17.14 4.66 0 8.88 1.87 11.97 4.89a19.15 19.15 0 0 0-16.44 28.78 17.15 17.15 0 0 1-12.67-16.53Zm263.3-3.09c-19.1 0-34.64 15.54-34.64 34.64s15.54 34.64 34.64 34.64 34.64-15.54 34.64-34.64-15.54-34.64-34.64-34.64Zm-30.64 34.64a30.67 30.67 0 0 1 30.64-30.64c8.86 0 16.85 3.78 22.45 9.82a32.64 32.64 0 0 0-29 50.76 30.7 30.7 0 0 1-24.1-29.93Z" class="de6de7af29f5"/>
  <path d="M2 86.93h173.63V16.67H2L27.23 51.8 2 86.93z" class="fcdf2ad1bd2d"/>
  <path d="M175.63 88.93H2a2 2 0 0 1-1.78-1.09 2.02 2.02 0 0 1 .15-2.08l24.39-33.97L.38 17.83a1.98 1.98 0 0 1-.15-2.08 2 2 0 0 1 1.78-1.09h173.63a2 2 0 0 1 2 2v70.27a2 2 0 0 1-2 2Zm-169.73-4h167.73V18.67H5.9l22.96 31.97a2 2 0 0 1 0 2.33L5.9 84.94Z" class="de6de7af29f5"/>
  <path d="M53.54 71.43c-3.92.04-7.05-1-9.37-3.11-2.32-2.11-3.5-4.97-3.53-8.59l7.68-.07a5.12 5.12 0 0 0 1.42 3.75 4.98 4.98 0 0 0 3.75 1.37 5.08 5.08 0 0 0 3.72-1.39 4.98 4.98 0 0 0 1.35-3.72l-.17-19.04-8.44.08-.06-7.16 16.12-.15.24 26.2c.03 3.62-1.09 6.48-3.35 8.6-2.27 2.12-5.38 3.2-9.34 3.23Zm32.24-.34c-3.79.03-6.79-.96-9.01-2.99-2.22-2.03-3.34-4.81-3.38-8.36l-.24-26.4 7.68-.07.24 26.35c.01 1.57.43 2.77 1.23 3.6.81.83 1.95 1.24 3.41 1.22s2.55-.44 3.37-1.28c.81-.84 1.21-2.05 1.2-3.62l-.24-26.35 7.68-.07.24 26.4c.03 3.51-1.04 6.31-3.23 8.4-2.18 2.08-5.17 3.14-8.95 3.18Zm18.42-.67-.34-37.35 8.95-.08 9.93 28.82-.4-4.37c-.15-1.65-.28-3.31-.38-4.96a98 98 0 0 1-.17-4.22l-.14-15.35 6.75-.06.34 37.35-8.95.08-9.83-28.82a314.43 314.43 0 0 1 .66 8.44c.1 1.54.15 2.9.16 4.09l.15 16.37-6.75.06Zm42.98.12a14.2 14.2 0 0 1-6.51-1.35 10.26 10.26 0 0 1-4.31-3.9 11.35 11.35 0 0 1-1.56-5.9l-.14-15.86c-.02-2.25.46-4.23 1.46-5.92.99-1.7 2.4-3.02 4.24-3.98 1.83-.95 4-1.44 6.49-1.47 2.52-.02 4.7.43 6.54 1.35a10.3 10.3 0 0 1 4.28 3.9 11.35 11.35 0 0 1 1.56 5.9l.14 15.86c.02 2.25-.47 4.23-1.46 5.92-.99 1.7-2.4 3.02-4.21 3.98a14.28 14.28 0 0 1-6.51 1.47Zm-.06-6.65c1.53-.01 2.68-.42 3.44-1.23a4.74 4.74 0 0 0 1.12-3.41l-.14-15.86c-.01-1.5-.4-2.64-1.16-3.42-.76-.78-1.92-1.16-3.49-1.15-1.57.01-2.73.42-3.47 1.21s-1.11 1.94-1.09 3.44l.14 15.86c.01 1.47.41 2.6 1.18 3.39.78.79 1.93 1.18 3.47 1.17Z" class="de6de7af29f5"/>
  <path d="M271.74 311.75c3.71 3.88 8.93 7.14 17.87 8.6" class="fcdf2ad1bd2d"/>
  <path d="M289.6 322.35c-.11 0-.22 0-.32-.03-8.24-1.34-14.27-4.26-18.99-9.19a2 2 0 0 1 2.89-2.77c4.09 4.27 9.41 6.81 16.74 8.01a2 2 0 0 1-.32 3.98Z" class="de6de7af29f5"/>
  <path d="M185.53 171.32s131.56 4.96 145.2 9.5 50.14 5.76 61.73 62.25c9.72 47.35 4.62 5.85-13.9 3.67-8.62-1.01-17.82 23.93-17.52 33.51.71 22.48-5.11 59.63-3.46 70.78s-56.6 17.35-56.6 17.35-.83-20.24-4.13-31.81c-3.31-11.57-10.74-16.94-10.74-16.94l-29.06 17.64-14.02 13.68-36.66-4.1s-1.65-21.85 3.72-33.83c5.37-11.98 21.48-29.33 22.72-40.9a5441.9 5441.9 0 0 0 4.26-43.79l-68.29-19.42 16.76-37.6Z" class="fcdf2ad1bd2d"/>
  <path d="M300.98 370.39a2 2 0 0 1-2-1.92c0-.2-.85-20.14-4.06-31.34a32.67 32.67 0 0 0-9.01-15.03l-27.64 16.78-13.86 13.52c-.43.42-1.02.63-1.62.56l-36.66-4.1a2 2 0 0 1-1.77-1.84c-.07-.91-1.62-22.5 3.89-34.8 2.18-4.87 5.95-10.4 9.93-16.25 5.86-8.61 11.93-17.52 12.63-24.04 1.06-9.92 3.46-35.37 4.1-42.11l-66.69-18.96c-.56-.16-1.02-.55-1.27-1.08s-.25-1.13-.01-1.66l16.75-37.6a1.97 1.97 0 0 1 1.9-1.18c5.38.2 132.01 5.02 145.75 9.6 1.67.56 3.73 1.07 6.11 1.66 16.28 4.05 46.59 11.59 56.95 62.09 1.88 9.16 3.2 14.96 3.98 18.42.33 1.46.57 2.5.7 3.17.18.87.54 2.66-1.17 3.27-1.75.63-2.48-.84-3.25-2.39-1.89-3.8-7.63-15.38-16.37-16.41-1.3-.16-2.67.83-3.6 1.69-6.33 5.81-11.91 22.81-11.69 29.77.36 11.39-.95 26.58-2.1 39.98-1.12 12.98-2.17 25.24-1.38 30.57a5.6 5.6 0 0 1-1.27 4.34c-7.56 9.77-52.05 14.76-57.1 15.29l-.21.01Zm-14.88-52.75c.41 0 .82.13 1.17.38.33.24 8.04 5.92 11.49 18.01 2.73 9.56 3.79 24.56 4.1 30.13a361.3 361.3 0 0 0 22.9-3.49c22-4.16 27.83-8.07 29.35-10.03.5-.65.51-1.06.47-1.31-.86-5.79.17-17.71 1.35-31.5 1.14-13.29 2.44-28.36 2.09-39.51-.25-7.85 5.59-26.07 12.98-32.85 2.25-2.06 4.52-2.98 6.77-2.71 5.98.7 10.63 4.96 13.96 9.36a968.4 968.4 0 0 1-2.25-10.64c-9.86-48.03-37.49-54.9-54-59.01a86.92 86.92 0 0 1-6.41-1.75c-10.47-3.49-97.5-7.61-143.29-9.35l-15.27 34.25 66.07 18.79a1.99 1.99 0 0 1 1.44 2.11c-.03.32-3.03 32.37-4.26 43.82-.81 7.52-7.16 16.85-13.3 25.87-3.88 5.7-7.55 11.09-9.59 15.64-4.27 9.52-3.89 25.98-3.65 31.21l34.04 3.81 13.34-13.02c.11-.11.23-.2.36-.28l29.06-17.64c.32-.19.68-.29 1.04-.29Z" class="de6de7af29f5"/>
  <rect width="50.46" height="42.49" x="269.05" y="235.03" class="fcdf2ad1bd2d" rx="5.61" ry="5.61" transform="rotate(2.8 294.64 256.65)"/>
  <path d="M313.14 280.45h-.38l-39.2-1.89a7.62 7.62 0 0 1-7.23-7.96l1.51-31.24a7.61 7.61 0 0 1 7.96-7.23l39.2 1.89a7.57 7.57 0 0 1 7.23 7.96l-1.51 31.24a7.55 7.55 0 0 1-7.58 7.23Zm-37.71-44.35a3.6 3.6 0 0 0-3.6 3.43l-1.51 31.24a3.61 3.61 0 0 0 3.43 3.78l39.2 1.89a3.6 3.6 0 0 0 3.78-3.43l1.51-31.24a3.61 3.61 0 0 0-3.43-3.78l-39.2-1.89h-.18Z" class="de6de7af29f5"/>
  <path d="M291.33 256.13a6.08 6.08 0 1 1-12.15-.6 6.08 6.08 0 0 1 12.15.6Z" class="fcdf2ad1bd2d"/>
  <path d="M285.26 263.92h-.39a8.06 8.06 0 0 1-7.68-8.46 8.1 8.1 0 0 1 8.46-7.68 8.06 8.06 0 0 1 7.68 8.46 8.09 8.09 0 0 1-8.06 7.69Zm-.01-12.16a4.08 4.08 0 1 0 .2 0h-.2Zm22.32 17.52h-.1a2 2 0 0 1-1.9-2.09l1-20.69c.05-1.1.99-1.91 2.09-1.9a2 2 0 0 1 1.9 2.09l-1 20.69a2 2 0 0 1-2 1.9Zm-9.28-.44h-.1a2 2 0 0 1-1.9-2.09l1-20.69a2 2 0 0 1 3.99.19l-1 20.69a2 2 0 0 1-2 1.9Z" class="de6de7af29f5"/>
  <path d="m299.89 354.22 1.09 26.15-10.56 1.64a16.33 16.33 0 0 0 3.53 32.44l49-2.68a17.2 17.2 0 0 0 15.99-14.96v-45.85c-21.43 5.35-41.63 6.52-59.05 3.25Z" class="fcdf2ad1bd2d"/>
  <path d="M292.94 416.49c-4.66 0-9.2-1.8-12.61-5.03a18.4 18.4 0 0 1-5.72-13.46 18.27 18.27 0 0 1 15.52-17.97l8.79-1.37-1.02-24.36a2 2 0 0 1 2.37-2.05c16.9 3.17 37.02 2.05 58.2-3.23a1.99 1.99 0 0 1 2.49 1.94v45.85c0 .09 0 .17-.02.26a19.23 19.23 0 0 1-17.85 16.7l-49.01 2.68c-.37.02-.75.04-1.12.04Zm9.05-59.87.99 23.67a2 2 0 0 1-1.69 2.06l-10.56 1.64a14.28 14.28 0 0 0-12.13 14.05 14.22 14.22 0 0 0 4.47 10.52 14.18 14.18 0 0 0 10.75 3.9l49.01-2.68a15.22 15.22 0 0 0 14.1-13.1v-43.17c-19.81 4.66-38.7 5.73-54.95 3.11Z" class="de6de7af29f5"/>
  <path d="m206.08 340.1.94 22.57-9.11 1.42a14.1 14.1 0 0 0 3.04 27.99l42.29-2.31a14.84 14.84 0 0 0 13.8-12.91v-39.57c-18.5 4.62-35.94 5.63-50.97 2.81Z" class="fcdf2ad1bd2d"/>
  <path d="M200.08 394.11c-4.09 0-8.08-1.58-11.07-4.41a16.19 16.19 0 0 1-5.03-11.82 16.02 16.02 0 0 1 13.62-15.77l7.35-1.14-.87-20.78a2 2 0 0 1 2.37-2.05c14.55 2.73 31.88 1.77 50.11-2.78a1.99 1.99 0 0 1 2.49 1.94v39.57c0 .09 0 .17-.02.26a16.87 16.87 0 0 1-15.66 14.65l-42.31 2.31-.98.03Zm8.1-51.62.84 20.09a2 2 0 0 1-1.69 2.06l-9.11 1.42a12.06 12.06 0 0 0-10.24 11.85 11.94 11.94 0 0 0 3.78 8.88 11.98 11.98 0 0 0 9.07 3.29l42.31-2.31a12.86 12.86 0 0 0 11.91-11.05v-36.9c-16.87 3.93-32.97 4.84-46.86 2.66Z" class="de6de7af29f5"/>
  <path d="m374.66 143.09 8.51-3.82c5.11-2.3 8.11-6.77 7.52-11.25l-3.37-25.68c-.59-4.48-4.63-8.03-10.17-8.93l-9.21-1.5" class="fcdf2ad1bd2d"/>
  <path d="M374.66 145.09a2 2 0 0 1-.82-3.82l8.51-3.82c4.27-1.92 6.82-5.6 6.35-9.17l-3.37-25.68c-.47-3.57-3.89-6.47-8.5-7.22l-9.21-1.5a2 2 0 0 1 .64-3.94l9.21 1.5c6.38 1.04 11.13 5.31 11.83 10.64l3.37 25.68c.7 5.33-2.79 10.69-8.68 13.33l-8.51 3.82c-.27.12-.54.18-.82.18Z" class="de6de7af29f5"/>
  <path d="m237.41 161.1-9.21-1.5c-5.53-.9-9.58-4.45-10.17-8.93l-3.37-25.68c-.59-4.48 2.4-8.95 7.52-11.25l8.51-3.82" class="fcdf2ad1bd2d"/>
  <path d="M237.41 163.1c-.11 0-.21 0-.32-.03l-9.21-1.5c-6.38-1.04-11.13-5.31-11.83-10.64l-3.37-25.68c-.7-5.33 2.79-10.69 8.68-13.34l8.51-3.82a2 2 0 1 1 1.63 3.64l-8.51 3.82c-4.27 1.92-6.82 5.6-6.35 9.17l3.37 25.68c.47 3.57 3.89 6.47 8.5 7.22l9.21 1.5a2 2 0 0 1-.32 3.97Z" class="de6de7af29f5"/>
  <circle cx="302.05" cy="121.77" r="73.33" class="fcdf2ad1bd2d"/>
  <path d="M301.9 197.12a74.78 74.78 0 0 1-45.73-15.6 74.85 74.85 0 0 1-28.81-49.95 74.87 74.87 0 0 1 14.94-55.69 74.85 74.85 0 0 1 49.94-28.81c41.18-5.41 79.09 23.71 84.5 64.89a74.87 74.87 0 0 1-14.94 55.69 74.85 74.85 0 0 1-49.95 28.81c-3.33.44-6.66.65-9.96.65Zm.2-146.69c-3.08 0-6.2.2-9.33.61-18.89 2.48-35.69 12.17-47.29 27.28s-16.63 33.84-14.15 52.73a70.86 70.86 0 0 0 27.28 47.29 70.84 70.84 0 0 0 52.73 14.15 70.86 70.86 0 0 0 47.29-27.28 70.84 70.84 0 0 0 14.15-52.73c-4.71-35.86-35.44-62.06-70.68-62.06Z" class="de6de7af29f5"/>
  <ellipse cx="303.28" cy="131.24" class="de6de7af29f5" rx="71.46" ry="40.18" transform="rotate(-7.5 303.15 131.2)"/>
  <path d="M292.14 174.17c-13.2 0-25.61-2.15-36.01-6.32-15.07-6.05-24.19-15.66-25.69-27.04-1.5-11.39 4.84-23.02 17.84-32.76 12.67-9.48 30.25-16.1 49.51-18.63 19.26-2.53 37.95-.67 52.64 5.22 15.07 6.05 24.19 15.66 25.69 27.04 1.5 11.39-4.84 23.02-17.84 32.76-12.66 9.48-30.25 16.1-49.51 18.63-5.62.74-11.19 1.1-16.63 1.1Zm22.3-81.86c-5.23 0-10.62.35-16.13 1.07-18.59 2.44-35.51 8.78-47.63 17.86-11.79 8.83-17.57 19.14-16.27 29.04 2.34 17.85 26.9 29.89 57.71 29.89 5.23 0 10.62-.35 16.13-1.07 18.59-2.44 35.51-8.78 47.63-17.86 11.79-8.83 17.57-19.14 16.27-29.04-2.34-17.85-26.9-29.89-57.71-29.89Z" class="de6de7af29f5"/>
  <path d="M293.81 167.66c-34.06 0-62-16.5-65.12-40.23-3.54-26.94 26.26-53.15 66.42-58.42 40.16-5.26 75.71 12.36 79.25 39.3 1.73 13.21-4.33 26.58-17.07 37.64-12.51 10.86-30.04 18.24-49.35 20.78-4.79.63-9.52.93-14.13.93Zm15.56-95.58c-4.48 0-9.07.29-13.73.91-37.97 4.98-66.23 29.18-62.98 53.93 3.25 24.75 36.79 40.84 74.76 35.85 18.54-2.43 35.32-9.48 47.25-19.83 11.7-10.16 17.28-22.26 15.73-34.1-2.85-21.71-29.01-36.76-61.03-36.76Z" class="de6de7af29f5"/>
  <path d="M263.05 306.13c2.76 5.49 11.11 10.05 21.34 11.04 10.24.99 19.31-1.87 23.07-6.73" class="fcdf2ad1bd2d"/>
  <path d="M288.46 319.37a44 44 0 0 1-4.26-.21c-10.76-1.04-19.76-5.81-22.94-12.13a2 2 0 1 1 3.57-1.79c2.53 5.05 10.47 9.05 19.75 9.95 9.28.9 17.84-1.5 21.29-5.96a2.01 2.01 0 0 1 2.81-.36c.87.68 1.03 1.93.36 2.81-3.75 4.85-11.57 7.7-20.58 7.7Z" class="de6de7af29f5"/>
  <path d="M169.22 161.1h6.97a21.06 21.06 0 0 1 21.05 21.05v13.95a21.06 21.06 0 0 1-21.05 21.05h-6.97a28.04 28.04 0 0 1-28.03-28.03 28.04 28.04 0 0 1 28.03-28.03Z" class="fcdf2ad1bd2d"/>
  <path d="M176.2 219.16h-6.97c-16.56 0-30.03-13.47-30.03-30.03s13.47-30.03 30.03-30.03h6.97a23.08 23.08 0 0 1 23.05 23.05v13.95a23.08 23.08 0 0 1-23.05 23.05Zm-6.98-56.06c-14.35 0-26.03 11.68-26.03 26.03s11.68 26.03 26.03 26.03h6.97a19.07 19.07 0 0 0 19.05-19.05v-13.95a19.07 19.07 0 0 0-19.05-19.05h-6.97ZM361.2 276.36h-.18a2 2 0 0 1-1.82-2.17c1.98-22.83-4.92-46.1-4.99-46.33a2 2 0 1 1 3.83-1.15c.29.98 7.19 24.24 5.15 47.83a2 2 0 0 1-1.99 1.83Z" class="de6de7af29f5"/>
  <path d="M391.97 231.69a32.45 32.45 0 0 1 1.83-6.33c5.07-12.39 16.2-14.24 19.43-8.82 3.17 5.33-8.64 15.63-1.1 31.74" class="fcdf2ad1bd2d"/>
  <path d="M412.13 250.28a2 2 0 0 1-1.81-1.15c-5-10.7-2.1-18.92.02-24.92 1.02-2.9 1.91-5.41 1.18-6.64-.8-1.35-2.42-2.04-4.42-1.88-3.41.25-8.45 3.14-11.44 10.44a30.63 30.63 0 0 0-1.72 5.95 2 2 0 1 1-3.93-.73 34.43 34.43 0 0 1 1.95-6.72c3.67-8.98 10.07-12.55 14.84-12.91 3.52-.26 6.57 1.17 8.16 3.83 1.69 2.84.52 6.17-.84 10.02-2 5.65-4.48 12.68-.17 21.9a2 2 0 0 1-1.81 2.85Z" class="de6de7af29f5"/>
  <path d="m371.59 283.38-5.83-3.83a21.06 21.06 0 0 1-6.03-29.15l7.66-11.66a21.06 21.06 0 0 1 29.15-6.04l5.82 3.83a28.04 28.04 0 0 1 8.04 38.82 28.04 28.04 0 0 1-38.82 8.04Z" class="fcdf2ad1bd2d"/>
  <path d="M386.89 290a29.77 29.77 0 0 1-16.42-4.94l-5.83-3.83a23.08 23.08 0 0 1-6.61-31.92l7.66-11.66a23.08 23.08 0 0 1 31.93-6.61l5.83 3.83a29.84 29.84 0 0 1 12.92 19.01c1.63 7.85.1 15.87-4.31 22.58a29.84 29.84 0 0 1-19.01 12.92c-2.05.42-4.11.63-6.15.63Zm-20.05-12.11 5.83 3.83a25.84 25.84 0 0 0 19.57 3.73 25.88 25.88 0 0 0 16.48-11.2c3.82-5.81 5.14-12.76 3.73-19.57s-5.39-12.66-11.2-16.47l-5.83-3.83a18.9 18.9 0 0 0-14.32-2.73 18.9 18.9 0 0 0-12.06 8.2l-7.66 11.66a19.09 19.09 0 0 0 5.46 26.39Zm-178.9 237.56a54 54 0 0 1-4.32-21.22 54.45 54.45 0 0 1 54.39-54.39 54.23 54.23 0 0 1 40.86 18.56 56.4 56.4 0 0 0-61.75 56.13l.02.93h75.24a58.02 58.02 0 0 0 4.01-21.22c0-32.2-26.19-58.39-58.39-58.39s-58.39 26.19-58.39 58.39c0 7.49 1.43 14.64 4.01 21.22h4.31Z" class="de6de7af29f5"/>
</svg>