<?xml version="1.0" encoding="UTF-8"?><svg id="uuid-fe3d66b1-10c5-4d50-9486-d1b7085bad45" xmlns="http://www.w3.org/2000/svg" viewBox="0 0 444.34 345.4"><defs><style>.uuid-daa43f00-42fc-452b-8a11-00b73aacecba,.uuid-2a92185e-e4be-4c64-83e8-ac632198b475,.uuid-49c0131b-3ba9-4faf-8aa6-2777ee50f622,.uuid-45633947-3064-4a5e-8700-5bc49a02d2c8{stroke-width:0px;}.uuid-2a92185e-e4be-4c64-83e8-ac632198b475{fill:#7888ff;}.uuid-49c0131b-3ba9-4faf-8aa6-2777ee50f622{fill:#c9cfff;}.uuid-45633947-3064-4a5e-8700-5bc49a02d2c8{fill:#fff;}</style></defs><g id="uuid-93edc039-3dff-4678-9dc6-79f361a29910"><path class="uuid-49c0131b-3ba9-4faf-8aa6-2777ee50f622" d="M111.06,183.01c-.05-1.27-.1-2.55-.1-3.83,0-48.76,39.53-88.29,88.29-88.29,34.24,0,63.91,19.51,78.56,48.01,11.28-5.98,24.13-9.38,37.79-9.38,36.99,0,68.14,24.85,77.75,58.76,28.81,12.35,49,40.97,49,74.3,0,44.63-36.18,80.82-80.82,80.82H125.11c-44.63,0-80.82-36.18-80.82-80.82,0-39.84,28.83-72.92,66.76-79.57Z"/><path class="uuid-daa43f00-42fc-452b-8a11-00b73aacecba" d="M361.52,345.4H125.11c-45.67,0-82.82-37.15-82.82-82.82,0-39.71,27.94-73.59,66.7-81.22-.02-.69-.03-1.43-.03-2.18,0-49.79,40.5-90.29,90.29-90.29,33.32,0,63.56,18.08,79.4,47.32,11.41-5.69,24.14-8.7,36.94-8.7,36.55,0,69.07,24.34,79.41,59.31,30,13.27,49.34,42.9,49.34,75.76,0,45.67-37.15,82.82-82.82,82.82ZM199.25,92.89c-47.58,0-86.29,38.71-86.29,86.29,0,1.36.05,2.71.1,3.75.04,1-.66,1.88-1.65,2.06-37.73,6.62-65.11,39.26-65.11,77.6,0,43.46,35.36,78.82,78.82,78.82h236.41c43.46,0,78.82-35.36,78.82-78.82,0-31.57-18.76-60.02-47.79-72.46-.55-.24-.97-.71-1.14-1.29-9.55-33.74-40.73-57.31-75.82-57.31-12.82,0-25.56,3.16-36.85,9.15-.47.25-1.03.3-1.54.14s-.94-.52-1.18-.99c-14.87-28.94-44.29-46.92-76.78-46.92Z"/><path class="uuid-49c0131b-3ba9-4faf-8aa6-2777ee50f622" d="M374.04,14.5c0-.17-.01-.35-.01-.52,0-6.62,5.36-11.98,11.98-11.98,4.65,0,8.67,2.65,10.66,6.51,1.53-.81,3.27-1.27,5.13-1.27,5.02,0,9.25,3.37,10.55,7.97,3.91,1.68,6.65,5.56,6.65,10.08,0,6.06-4.91,10.97-10.97,10.97h-32.08c-6.06,0-10.97-4.91-10.97-10.97,0-5.41,3.91-9.89,9.06-10.8Z"/><path class="uuid-daa43f00-42fc-452b-8a11-00b73aacecba" d="M408.02,38.26h-32.08c-7.15,0-12.97-5.82-12.97-12.97,0-5.74,3.73-10.71,9.08-12.37.54-7.22,6.59-12.92,13.94-12.92,4.63,0,8.87,2.25,11.47,5.98,1.38-.49,2.85-.74,4.32-.74,5.46,0,10.34,3.47,12.18,8.54,4.29,2.21,7.01,6.64,7.01,11.52,0,7.15-5.82,12.97-12.97,12.97ZM386.01,4c-5.5,0-9.98,4.48-9.98,9.98,0,.15,0,.29.01.44.04,1-.66,1.88-1.65,2.05-4.29.75-7.4,4.46-7.4,8.83,0,4.94,4.02,8.97,8.97,8.97h32.08c4.94,0,8.97-4.02,8.97-8.97,0-3.59-2.13-6.83-5.44-8.24-.55-.24-.97-.71-1.14-1.29-1.09-3.84-4.63-6.52-8.62-6.52-1.48,0-2.89.35-4.19,1.04-.47.25-1.03.3-1.54.14-.51-.16-.94-.52-1.18-.99-1.72-3.35-5.12-5.43-8.88-5.43Z"/><path class="uuid-49c0131b-3ba9-4faf-8aa6-2777ee50f622" d="M16,74.82c-.01-.27-.02-.53-.02-.8,0-10.22,8.29-18.51,18.51-18.51,7.18,0,13.4,4.09,16.47,10.07,2.36-1.25,5.06-1.97,7.92-1.97,7.75,0,14.29,5.21,16.3,12.32,6.04,2.59,10.27,8.59,10.27,15.58,0,9.36-7.59,16.95-16.95,16.95H18.95c-9.36,0-16.95-7.59-16.95-16.95,0-8.35,6.05-15.29,14-16.68Z"/><path class="uuid-daa43f00-42fc-452b-8a11-00b73aacecba" d="M68.52,110.45H18.95c-10.45,0-18.95-8.5-18.95-18.95,0-8.65,5.79-16.08,13.99-18.29.42-10.94,9.45-19.71,20.5-19.71,7.08,0,13.54,3.59,17.29,9.48,2.25-.91,4.67-1.38,7.1-1.38,8.12,0,15.37,5.25,17.95,12.88,6.49,3.17,10.63,9.75,10.63,17.02,0,10.45-8.5,18.95-18.95,18.95ZM34.49,57.51c-9.1,0-16.51,7.41-16.51,16.51,0,.24,0,.48.02.72.04,1-.66,1.88-1.65,2.05-7.15,1.25-12.34,7.44-12.34,14.71,0,8.24,6.7,14.95,14.95,14.95h49.57c8.24,0,14.95-6.7,14.95-14.95,0-5.99-3.56-11.38-9.06-13.74-.55-.24-.97-.71-1.14-1.29-1.81-6.4-7.72-10.87-14.38-10.87-2.47,0-4.82.58-6.99,1.73-.47.25-1.03.3-1.54.14-.51-.16-.94-.52-1.18-.99-2.85-5.54-8.48-8.98-14.69-8.98Z"/><rect class="uuid-45633947-3064-4a5e-8700-5bc49a02d2c8" x="170.59" y="133.01" width="127.93" height="131.49" rx="15.72" ry="15.72" transform="translate(448.73 -21.8) rotate(93.88)"/><path class="uuid-daa43f00-42fc-452b-8a11-00b73aacecba" d="M281.21,268c-.4,0-.81-.01-1.21-.04l-99.82-6.77c-4.72-.32-9.04-2.46-12.15-6.03-3.11-3.57-4.65-8.13-4.33-12.85l6.53-96.27c.66-9.75,9.13-17.16,18.88-16.48l99.82,6.77c9.75.66,17.14,9.13,16.48,18.88l-6.53,96.27h0c-.63,9.34-8.44,16.52-17.67,16.52ZM187.9,133.51c-7.15,0-13.19,5.56-13.68,12.79l-6.53,96.27c-.25,3.66.94,7.19,3.35,9.95,2.41,2.76,5.75,4.42,9.41,4.67l99.82,6.77c7.57.53,14.11-5.21,14.62-12.76l6.53-96.27c.51-7.55-5.21-14.11-12.76-14.62l-99.82-6.77c-.31-.02-.63-.03-.94-.03ZM296.88,251.34h0,0Z"/><path class="uuid-45633947-3064-4a5e-8700-5bc49a02d2c8" d="M382.66,221.29s-33.78-10.9-53.4-25.61c-19.62-14.71-25.06-37.6-39.23-39.23s-68.65-19.62-81.73-7.08c-13.08,12.53-23.89,29.53-25.61,43.59-2.71,22.15,5.99,28.33,5.99,28.33,0,0-5.98,13.08-6.52,26.96-.53,13.88,7.61,30.8,16.87,35.15,9.26,4.36,28.33,28.88,28.33,28.88l32.43-42.65s11.7,2.33,22.87,6.14,20.43,7.08,20.43,7.08l15,7.35,23.69-20.42-16.42-22.52c-1.75-2.4-3.97-4.41-6.52-5.91l-17.38-10.25,3.81-9.81s26.7,15.8,31.6,16.89c4.9,1.09,32.15,5.45,32.15,5.45l13.62-22.34Z"/><path class="uuid-daa43f00-42fc-452b-8a11-00b73aacecba" d="M227.37,314.29c-.62,0-1.2-.29-1.58-.77-.19-.24-18.88-24.19-27.61-28.3-9.99-4.7-18.58-22.36-18.02-37.04.45-11.7,4.58-22.67,6.13-26.39-2.52-2.74-7.82-10.85-5.59-29.07,1.68-13.75,11.73-30.91,26.21-44.79,10.62-10.17,43.1-2.53,66.83,3.06,7.04,1.66,13.12,3.09,16.52,3.48,8.59.99,14.1,8.7,20.47,17.63,5.17,7.25,11.04,15.46,19.73,21.98,19.12,14.34,52.48,25.2,52.81,25.3.58.19,1.05.63,1.26,1.21.21.57.15,1.21-.17,1.74l-13.62,22.34c-.42.69-1.22,1.07-2.02.93-1.11-.18-27.36-4.38-32.27-5.47-4.42-.98-23.52-12.04-30.16-15.93l-2.35,6.03,15.91,9.39c2.81,1.66,5.2,3.83,7.12,6.46l16.42,22.52c.61.84.48,2.01-.31,2.69l-23.69,20.42c-.61.52-1.47.63-2.19.28l-14.89-7.29c-1.08-.38-9.92-3.49-20.3-7.04-8.84-3.02-18.14-5.12-21.4-5.82l-31.67,41.64c-.38.49-.96.79-1.58.79h-.01ZM224.89,146.95c-6.79,0-12.29,1.06-15.21,3.86-13.64,13.07-23.45,29.71-25.01,42.39-2.5,20.42,5.11,26.42,5.19,26.48.75.56,1.03,1.59.64,2.45-.06.13-5.83,12.9-6.34,26.21-.5,13.06,7.14,29.23,15.72,33.27,8.07,3.8,22.59,21.36,27.45,27.43l30.87-40.59c.46-.61,1.23-.89,1.98-.75.12.02,11.96,2.4,23.13,6.21,11.05,3.77,20.36,7.06,20.45,7.09.07.03.14.06.21.09l13.81,6.76,21.29-18.36-15.34-21.03c-1.6-2.19-3.59-4-5.92-5.37l-17.38-10.25c-.84-.5-1.2-1.53-.85-2.45l3.81-9.81c.21-.55.66-.97,1.21-1.17.55-.19,1.17-.13,1.67.17,10.62,6.29,27.65,15.91,31.02,16.66,4.17.93,25.19,4.33,30.7,5.21l11.62-19.05c-8.14-2.79-34.74-12.47-51.58-25.11-9.19-6.89-15.24-15.37-20.59-22.86-6.06-8.49-10.85-15.2-17.67-15.99-3.63-.42-9.52-1.8-16.98-3.56-13.71-3.23-33.67-7.93-47.94-7.93Z"/><path class="uuid-45633947-3064-4a5e-8700-5bc49a02d2c8" d="M193.38,122.84l-8.51-3.82c-5.11-2.3-8.11-6.77-7.52-11.25l3.37-25.68c.59-4.48,4.63-8.03,10.17-8.93l9.21-1.5"/><path class="uuid-daa43f00-42fc-452b-8a11-00b73aacecba" d="M193.37,124.84c-.27,0-.55-.06-.82-.18l-8.51-3.82c-5.89-2.64-9.38-8-8.68-13.34l3.37-25.68c.7-5.33,5.45-9.61,11.83-10.64l9.21-1.5c1.09-.17,2.12.56,2.29,1.65.18,1.09-.56,2.12-1.65,2.29l-9.21,1.5c-4.62.75-8.04,3.65-8.5,7.22l-3.37,25.68c-.47,3.57,2.09,7.25,6.35,9.17l8.51,3.82c1.01.45,1.46,1.64,1.01,2.64-.33.74-1.06,1.18-1.83,1.18Z"/><path class="uuid-45633947-3064-4a5e-8700-5bc49a02d2c8" d="M330.63,140.85l9.21-1.5c5.53-.9,9.58-4.45,10.17-8.93l3.37-25.68c.59-4.48-2.4-8.95-7.52-11.25l-8.51-3.82"/><path class="uuid-daa43f00-42fc-452b-8a11-00b73aacecba" d="M330.62,142.85c-.96,0-1.81-.7-1.97-1.68-.18-1.09.56-2.12,1.65-2.29l9.21-1.5c4.62-.75,8.04-3.65,8.5-7.22l3.37-25.68c.47-3.57-2.09-7.25-6.35-9.17l-8.51-3.82c-1.01-.45-1.46-1.64-1.01-2.64.45-1.01,1.64-1.46,2.64-1l8.51,3.82c5.89,2.64,9.38,8,8.68,13.34l-3.37,25.68c-.7,5.33-5.45,9.61-11.83,10.64l-9.21,1.5c-.11.02-.22.03-.32.03Z"/><circle class="uuid-45633947-3064-4a5e-8700-5bc49a02d2c8" cx="265.98" cy="101.53" r="73.33"/><path class="uuid-daa43f00-42fc-452b-8a11-00b73aacecba" d="M266.03,176.87c-3.26,0-6.54-.21-9.86-.65-19.95-2.62-37.69-12.85-49.94-28.81-12.26-15.96-17.56-35.74-14.94-55.69h0c2.62-19.95,12.85-37.69,28.81-49.95,15.96-12.26,35.74-17.56,55.69-14.95,41.19,5.41,70.3,43.31,64.89,84.5-4.97,37.87-37.43,65.53-74.64,65.54ZM265.83,30.18c-15.61,0-30.71,5.1-43.3,14.77-15.11,11.61-24.8,28.4-27.28,47.29h0c-2.48,18.89,2.55,37.62,14.15,52.73s28.4,24.8,47.29,27.28c38.99,5.12,74.89-22.45,80.01-61.44,5.12-39-22.45-74.89-61.44-80.01-3.15-.41-6.3-.62-9.43-.62ZM193.27,91.98h0,0Z"/><ellipse class="uuid-daa43f00-42fc-452b-8a11-00b73aacecba" cx="264.75" cy="110.99" rx="40.18" ry="71.46" transform="translate(120.25 359.05) rotate(-82.52)"/><path class="uuid-daa43f00-42fc-452b-8a11-00b73aacecba" d="M275.89,153.92c-5.44,0-11.01-.36-16.63-1.1-19.26-2.53-36.84-9.14-49.51-18.63-13-9.73-19.33-21.37-17.84-32.76,1.5-11.39,10.62-21,25.69-27.04,14.68-5.89,33.38-7.75,52.64-5.22,19.26,2.53,36.84,9.14,49.51,18.63,13,9.73,19.33,21.37,17.84,32.76-1.5,11.39-10.62,21-25.69,27.04-10.4,4.17-22.81,6.32-36.01,6.32ZM253.59,72.06c-30.81,0-55.36,12.04-57.71,29.89-1.3,9.89,4.48,20.21,16.27,29.04,12.12,9.08,29.04,15.42,47.63,17.86,37.97,4.99,71.1-7.94,73.84-28.82,1.3-9.89-4.48-20.21-16.27-29.04-12.12-9.08-29.04-15.42-47.63-17.86-5.5-.72-10.91-1.07-16.13-1.07Z"/><path class="uuid-daa43f00-42fc-452b-8a11-00b73aacecba" d="M274.23,147.41c-4.61,0-9.34-.3-14.13-.93-40.16-5.27-69.96-31.48-66.42-58.42h0c3.54-26.94,39.09-44.57,79.25-39.3,40.16,5.27,69.96,31.48,66.42,58.42-3.11,23.72-31.06,40.23-65.12,40.23ZM197.64,88.59h0c-3.25,24.75,25,48.95,62.98,53.93,4.66.61,9.25.91,13.73.91,32.02,0,58.18-15.04,61.03-36.76,3.25-24.75-25-48.95-62.98-53.93-37.97-4.99-71.51,11.1-74.76,35.85Z"/><path class="uuid-45633947-3064-4a5e-8700-5bc49a02d2c8" d="M334.51,259.69l10.57,13.92,6.13-3.65c4.59-2.73,10.48-1.74,13.92,2.35,4.07,4.84,3.19,12.12-1.93,15.84l-26.34,19.48c-4.45,3.24-10.57,2.87-14.59-.89l-19.52-23.58c13.3-6.37,24.19-14.37,31.76-23.46Z"/><path class="uuid-daa43f00-42fc-452b-8a11-00b73aacecba" d="M330.11,311.82c-3.32,0-6.63-1.22-9.2-3.62-.06-.06-.12-.12-.18-.19l-19.52-23.58c-.39-.47-.54-1.1-.41-1.71.13-.6.53-1.11,1.09-1.37,13.06-6.26,23.8-14.19,31.08-22.94.39-.47.95-.73,1.58-.72.61.01,1.18.3,1.55.79l9.49,12.49,4.59-2.74c5.46-3.25,12.39-2.08,16.48,2.78,2.3,2.73,3.37,6.33,2.94,9.87-.43,3.54-2.33,6.78-5.22,8.88l-26.33,19.47c-2.38,1.73-5.17,2.58-7.95,2.58ZM323.72,305.36c3.32,3.02,8.33,3.29,11.96.65l26.33-19.47c2.03-1.48,3.31-3.65,3.61-6.13.3-2.48-.42-4.9-2.03-6.81-2.82-3.35-7.6-4.16-11.37-1.92l-6.13,3.65c-.88.52-2,.3-2.62-.51l-9.08-11.95c-7.11,7.92-16.88,15.11-28.5,20.97l17.82,21.53Z"/><path class="uuid-45633947-3064-4a5e-8700-5bc49a02d2c8" d="M386.79,216.45h5.01c8.35,0,15.12,6.78,15.12,15.12v10.02c0,8.35-6.78,15.12-15.12,15.12h-5.01c-11.11,0-20.13-9.02-20.13-20.13h0c0-11.11,9.02-20.13,20.13-20.13Z" transform="translate(567.14 652.57) rotate(-144.89)"/><path class="uuid-daa43f00-42fc-452b-8a11-00b73aacecba" d="M386.74,258.72c-4.51,0-8.91-1.38-12.68-4.03l-4.1-2.88h0c-7.72-5.43-9.59-16.13-4.16-23.85l5.76-8.2c5.43-7.72,16.13-9.59,23.85-4.16l4.1,2.88c9.98,7.02,12.39,20.85,5.38,30.83-3.4,4.84-8.48,8.06-14.3,9.07-1.28.22-2.57.33-3.85.33ZM372.27,248.53l4.1,2.88c3.96,2.79,8.77,3.86,13.54,3.03,4.77-.83,8.93-3.47,11.72-7.43,5.75-8.18,3.77-19.51-4.4-25.26l-4.1-2.88c-2.87-2.01-6.35-2.79-9.8-2.19-3.45.6-6.46,2.51-8.48,5.38l-5.76,8.2c-4.16,5.92-2.73,14.12,3.19,18.28h0Z"/><path class="uuid-45633947-3064-4a5e-8700-5bc49a02d2c8" d="M258.8,215.47s-18.88,6.94-36.69,9.44c-26.88,3.78-33.43-3.62-33.43-3.62"/><path class="uuid-daa43f00-42fc-452b-8a11-00b73aacecba" d="M208.02,228c-15.52,0-20.25-4.72-20.84-5.38-.73-.83-.65-2.09.17-2.82.83-.73,2.09-.65,2.82.17.03.03,6.62,6.49,31.65,2.97,17.38-2.45,36.09-9.27,36.28-9.34,1.04-.38,2.19.15,2.57,1.19.38,1.04-.15,2.19-1.19,2.57-.19.07-19.29,7.04-37.1,9.55-5.59.79-10.34,1.1-14.37,1.1Z"/><path class="uuid-45633947-3064-4a5e-8700-5bc49a02d2c8" d="M261.17,196.87c-17.63-4.96-38.15-3.2-47.06-7.56"/><path class="uuid-daa43f00-42fc-452b-8a11-00b73aacecba" d="M261.18,198.87c-.18,0-.36-.02-.54-.08-8.54-2.4-17.9-3.2-26.16-3.91-8.8-.75-16.4-1.41-21.24-3.78-.99-.49-1.4-1.68-.92-2.67.49-.99,1.68-1.4,2.68-.92,4.16,2.04,11.42,2.66,19.82,3.38,8.43.72,17.99,1.54,26.9,4.05,1.06.3,1.68,1.4,1.38,2.47-.25.88-1.05,1.46-1.92,1.46Z"/><path class="uuid-45633947-3064-4a5e-8700-5bc49a02d2c8" d="M231.92,242.84c14.53,9.69,24.87,23.68,24.87,23.68"/><path class="uuid-daa43f00-42fc-452b-8a11-00b73aacecba" d="M256.79,268.52c-.61,0-1.22-.28-1.61-.81-.1-.14-10.32-13.84-24.37-23.21-.92-.61-1.17-1.85-.55-2.77.61-.92,1.85-1.17,2.77-.55,14.65,9.77,24.94,23.57,25.37,24.16.66.89.47,2.14-.42,2.8-.36.26-.77.39-1.19.39Z"/><path class="uuid-45633947-3064-4a5e-8700-5bc49a02d2c8" d="M258.43,268.36c4.5-2.74,24.96-2.23,21.5,17.38-3.46,19.61-16.34,43.06-31.81,41.14-15.47-1.92-16.5-9.36-22.39-14.99-8.15-7.78-11.15-15.13-11.15-15.13,0,0,.46-12.99,8.45-22.44,7.99-9.44,21.34-18.71,27.8-14.63,2.59,1.96,7.61,8.67,7.61,8.67Z"/><path class="uuid-daa43f00-42fc-452b-8a11-00b73aacecba" d="M249.93,328.99c-.68,0-1.37-.04-2.06-.13-12.42-1.54-16.4-6.72-19.91-11.29-1.16-1.51-2.25-2.93-3.62-4.24-8.36-7.98-11.49-15.51-11.62-15.82-.11-.26-.16-.54-.15-.83.02-.56.58-13.8,8.92-23.66,4.29-5.07,9.89-9.86,14.99-12.82,6.44-3.74,11.76-4.5,15.4-2.2.05.03.09.06.14.1,2.11,1.59,5.4,5.69,7.05,7.81,4.12-1.35,11.49-1.11,16.8,2.52,3.72,2.54,7.79,7.67,6.02,17.66-3.15,17.82-15.34,42.9-31.97,42.9ZM216.6,296.39c.73,1.57,3.84,7.69,10.5,14.05,1.59,1.52,2.83,3.13,4.03,4.7,3.33,4.33,6.47,8.42,17.23,9.76,14.44,1.78,26.47-21.79,29.6-39.5,1.12-6.34-.34-10.93-4.34-13.67-4.94-3.38-12.25-2.81-14.15-1.66-.88.54-2.02.31-2.64-.51-1.33-1.78-5.19-6.69-7.15-8.22-4.11-2.47-15.39,2.76-25.13,14.27-6.63,7.84-7.78,18.5-7.95,20.78Z"/><path class="uuid-daa43f00-42fc-452b-8a11-00b73aacecba" d="M231.47,320.91c-.6,0-1.19-.27-1.58-.78-2.05-2.64-2.64-6.53-1.75-11.54,2.24-12.74,14.52-32.63,29.22-41.92.93-.59,2.17-.31,2.76.62.59.93.31,2.17-.62,2.76-13.6,8.6-25.37,27.58-27.42,39.23-.67,3.8-.33,6.71.98,8.4.68.87.52,2.13-.36,2.81-.36.28-.8.42-1.22.42Z"/><rect class="uuid-45633947-3064-4a5e-8700-5bc49a02d2c8" x="301.94" y="223.38" width="83.37" height="10.63" transform="translate(687.25 457.39) rotate(180)"/><path class="uuid-daa43f00-42fc-452b-8a11-00b73aacecba" d="M385.31,236.01h-83.37c-1.1,0-2-.9-2-2v-10.62c0-1.1.9-2,2-2h83.37c1.1,0,2,.9,2,2v10.62c0,1.1-.9,2-2,2ZM303.94,232.01h79.37v-6.62h-79.37v6.62Z"/><path class="uuid-45633947-3064-4a5e-8700-5bc49a02d2c8" d="M301.94,223.38h83.37l28.22-57.7c1.18-2.42-.58-5.24-3.27-5.24h-69.52c-4.91,0-9.39,2.8-11.55,7.21l-27.26,55.73Z"/><path class="uuid-daa43f00-42fc-452b-8a11-00b73aacecba" d="M385.31,225.38h-83.37c-.69,0-1.33-.36-1.7-.94-.37-.58-.4-1.32-.1-1.94l27.26-55.73c2.47-5.06,7.71-8.33,13.34-8.33h69.52c1.96,0,3.75.99,4.78,2.65s1.14,3.7.28,5.46l-28.22,57.7c-.34.69-1.03,1.12-1.8,1.12ZM305.15,221.38h78.91l27.68-56.58c.36-.74.06-1.35-.08-1.59s-.57-.77-1.39-.77h-69.52c-4.12,0-7.94,2.39-9.75,6.08l-25.85,52.85Z"/><path class="uuid-45633947-3064-4a5e-8700-5bc49a02d2c8" d="M245.55,223.38h51.08c2.93,0,5.31,2.38,5.31,5.31h0c0,2.93-2.38,5.31-5.31,5.31h-51.08v-10.63h0Z" transform="translate(547.49 457.39) rotate(-180)"/><path class="uuid-daa43f00-42fc-452b-8a11-00b73aacecba" d="M301.94,236.01h-51.08c-4.03,0-7.31-3.28-7.31-7.31s3.28-7.31,7.31-7.31h51.08c1.1,0,2,.9,2,2v10.62c0,1.1-.9,2-2,2ZM250.86,225.38c-1.83,0-3.31,1.49-3.31,3.31s1.49,3.31,3.31,3.31h49.08v-6.62h-49.08Z"/><path class="uuid-2a92185e-e4be-4c64-83e8-ac632198b475" d="M347.21,188.07c.05-.14.09-.28.15-.43,1.99-5.43,8-9.82,13.42-9.8,3.81,0,6.31,2.19,6.78,5.37,1.5-.66,3.07-1.04,4.58-1.03,4.11.01,6.56,2.79,6.25,6.56,2.7,1.38,3.78,4.57,2.42,8.28-1.82,4.97-7.32,8.98-12.28,8.97l-26.29-.07c-4.96-.01-7.51-4.05-5.69-9.02,1.63-4.43,6.18-8.11,10.67-8.84Z"/><path class="uuid-daa43f00-42fc-452b-8a11-00b73aacecba" d="M368.54,207.99h-.03l-26.29-.07c-2.96,0-5.41-1.18-6.89-3.31-1.56-2.24-1.81-5.3-.67-8.4,1.7-4.64,6.23-8.63,11.06-9.88,2.49-5.94,8.96-10.5,15.03-10.5h.03c3.79,0,6.75,1.82,8.09,4.78,1.09-.3,2.18-.45,3.24-.45h.03c2.55,0,4.78.91,6.28,2.55,1.2,1.31,1.88,3.03,1.98,4.93,2.84,2.13,3.77,6.01,2.28,10.06-2.12,5.77-8.32,10.28-14.14,10.28ZM360.75,179.84c-4.56,0-9.83,3.88-11.51,8.49-.04.12-.08.23-.12.35-.23.72-.84,1.24-1.58,1.36-3.85.63-7.76,3.87-9.11,7.55-.68,1.85-.61,3.58.2,4.74.71,1.02,2,1.59,3.62,1.59l26.29.07h.02c4.11,0,8.86-3.5,10.38-7.66.97-2.63.41-4.86-1.45-5.82-.72-.37-1.15-1.14-1.08-1.95.11-1.29-.21-2.38-.92-3.15-.75-.81-1.9-1.25-3.34-1.25-1.19.04-2.49.29-3.77.86-.57.25-1.23.22-1.78-.08-.55-.3-.92-.84-1.01-1.46-.33-2.28-2.13-3.65-4.8-3.66h-.02ZM347.21,188.07h0,0Z"/><path class="uuid-45633947-3064-4a5e-8700-5bc49a02d2c8" d="M263.19,182.25h5.01c8.35,0,15.12,6.78,15.12,15.12v10.02c0,8.35-6.78,15.12-15.12,15.12h-5.01c-11.11,0-20.13-9.02-20.13-20.13h0c0-11.11,9.02-20.13,20.13-20.13Z" transform="translate(411.27 -94.77) rotate(78.93)"/><path class="uuid-daa43f00-42fc-452b-8a11-00b73aacecba" d="M259.23,225.38c-8.02,0-15.2-5.68-16.8-13.84l-.96-4.92c-2.34-11.98,5.49-23.62,17.47-25.97,5.8-1.13,11.7.06,16.6,3.36,4.9,3.3,8.23,8.31,9.37,14.11l.96,4.92h0c1.81,9.26-4.25,18.28-13.52,20.09l-9.83,1.92c-1.1.22-2.21.32-3.29.32ZM263.23,184.25c-1.17,0-2.35.11-3.52.34-9.81,1.92-16.23,11.46-14.31,21.27l.96,4.92c1.39,7.1,8.3,11.75,15.4,10.36l9.83-1.92c7.1-1.39,11.75-8.3,10.36-15.4l-.96-4.92c-.93-4.75-3.65-8.86-7.67-11.56-3.03-2.04-6.51-3.09-10.08-3.09Z"/><path class="uuid-45633947-3064-4a5e-8700-5bc49a02d2c8" d="M304.76,217.61c0-16.66-2.01-27.57-5.59-33.75"/><path class="uuid-daa43f00-42fc-452b-8a11-00b73aacecba" d="M304.76,219.61c-1.1,0-2-.9-2-2,0-15.63-1.79-26.65-5.32-32.74-.55-.96-.23-2.18.73-2.73.96-.55,2.18-.23,2.73.73,3.94,6.81,5.86,18.17,5.86,34.75,0,1.1-.9,2-2,2Z"/><path class="uuid-daa43f00-42fc-452b-8a11-00b73aacecba" d="M165.69,244.44c-1.1,0-2-.9-2-2,0-3.45-4.2-7.01-11.52-9.76-8.05-3.02-18.8-4.69-30.28-4.69-1.1,0-2-.9-2-2s.9-2,2-2c26.11,0,45.8,7.93,45.8,18.45,0,1.1-.9,2-2,2Z"/><path class="uuid-daa43f00-42fc-452b-8a11-00b73aacecba" d="M165.69,236.01c-1.1,0-2-.9-2-2,0-14.34-10.71-26.02-23.87-26.02-1.1,0-2-.9-2-2s.9-2,2-2c15.37,0,27.87,13.46,27.87,30.02,0,1.1-.9,2-2,2Z"/><path class="uuid-daa43f00-42fc-452b-8a11-00b73aacecba" d="M325.37,249.26c-1.1,0-2-.9-2-2,0-6.11,6.06-11.08,13.52-11.08,1.1,0,2,.9,2,2s-.9,2-2,2c-5.25,0-9.52,3.18-9.52,7.08,0,1.1-.9,2-2,2Z"/></g></svg>