<?xml version="1.0" encoding="UTF-8"?><svg id="uuid-8119b324-5da1-43c4-97ef-485d390f2d55" xmlns="http://www.w3.org/2000/svg" xmlns:xlink="http://www.w3.org/1999/xlink" viewBox="0 0 562.64 448.25"><defs><radialGradient id="uuid-d3a469a1-205e-41c2-a738-837048f03662" cx="366.09" cy="184.14" fx="366.09" fy="184.14" r="184.14" gradientUnits="userSpaceOnUse"><stop offset=".49" stop-color="#7888ff"/><stop offset=".58" stop-color="rgba(120,136,255,.99)" stop-opacity=".99"/><stop offset=".64" stop-color="rgba(120,136,255,.95)" stop-opacity=".95"/><stop offset=".7" stop-color="rgba(120,136,255,.88)" stop-opacity=".88"/><stop offset=".76" stop-color="rgba(120,136,255,.79)" stop-opacity=".79"/><stop offset=".81" stop-color="rgba(120,136,255,.67)" stop-opacity=".67"/><stop offset=".87" stop-color="rgba(120,136,255,.53)" stop-opacity=".53"/><stop offset=".92" stop-color="rgba(120,136,255,.35)" stop-opacity=".35"/><stop offset=".97" stop-color="rgba(120,136,255,.16)" stop-opacity=".16"/><stop offset="1" stop-color="#7888ff" stop-opacity="0"/></radialGradient></defs><g id="uuid-864b3b23-a291-4466-95f2-1350f5809edf"><circle id="uuid-f79fd404-b418-46a6-bcff-8b60013cc643" cx="366.09" cy="184.14" r="184.14" style="fill:url(#uuid-d3a469a1-205e-41c2-a738-837048f03662); stroke-width:0px;"/><path d="M75.55,239.56c-.02-.43-.03-.87-.03-1.31,0-16.68,13.52-30.2,30.2-30.2,11.71,0,21.86,6.67,26.87,16.42,3.86-2.04,8.25-3.21,12.92-3.21,12.65,0,23.31,8.5,26.59,20.1,9.85,4.23,16.76,14.01,16.76,25.41,0,15.27-12.37,27.64-27.64,27.64h-80.85c-15.27,0-27.64-12.38-27.64-27.64,0-13.62,9.86-24.94,22.83-27.22Z" style="fill:#c9cfff; stroke-width:0px;"/><path d="M161.21,296.42h-80.85c-16.34,0-29.64-13.3-29.64-29.64,0-13.84,9.49-25.71,22.8-28.84.17-17.61,14.55-31.88,32.19-31.88,11.46,0,21.91,6,27.7,15.79,3.79-1.69,7.93-2.58,12.09-2.58,12.88,0,24.36,8.44,28.24,20.65,10.42,4.86,17.11,15.31,17.11,26.86,0,16.34-13.3,29.64-29.64,29.64ZM105.71,210.05c-15.55,0-28.2,12.65-28.2,28.2,0,.41.01.82.03,1.23.04,1-.66,1.88-1.65,2.05-12.27,2.15-21.18,12.77-21.18,25.25,0,14.14,11.5,25.64,25.64,25.64h80.85c14.14,0,25.64-11.5,25.64-25.64,0-10.27-6.1-19.52-15.55-23.57-.55-.24-.97-.71-1.14-1.29-3.11-10.98-13.25-18.64-24.67-18.64-4.17,0-8.32,1.03-11.99,2.97-.47.25-1.03.3-1.54.14-.51-.16-.93-.52-1.18-.99-4.86-9.46-14.47-15.33-25.09-15.33Z" style="fill:#000; stroke-width:0px;"/><path d="M161.61,448.25c-.43,0-.87-.14-1.24-.43-.87-.68-1.02-1.94-.34-2.81l82.58-104.96c.69-.87,1.94-1.02,2.81-.34.87.68,1.02,1.94.34,2.81l-82.58,104.96c-.4.5-.98.76-1.57.76Z" style="fill:#7888ff; stroke-width:0px;"/><path d="M165.4,410.44c-.43,0-.87-.14-1.24-.43-.87-.68-1.02-1.94-.34-2.81l82.58-104.96c.69-.87,1.94-1.01,2.81-.34.87.68,1.02,1.94.34,2.81l-82.58,104.96c-.4.5-.98.76-1.57.76Z" style="fill:#7888ff; stroke-width:0px;"/><path d="M207.74,425.56c-.43,0-.87-.14-1.24-.43-.87-.68-1.02-1.94-.34-2.81l82.58-104.96c.69-.87,1.94-1.02,2.81-.34.87.68,1.02,1.94.34,2.81l-82.58,104.96c-.4.5-.98.76-1.57.76Z" style="fill:#7888ff; stroke-width:0px;"/><circle cx="405.34" cy="134.07" r="32.96" style="fill:#fff; stroke-width:0px;"/><path d="M405.27,169.04c-7.36,0-14.52-2.32-20.57-6.75-7.54-5.51-12.47-13.63-13.9-22.86-1.43-9.23.82-18.46,6.33-26,5.51-7.54,13.63-12.47,22.86-13.9,9.22-1.43,18.46.82,26,6.33,7.54,5.51,12.47,13.63,13.9,22.86,1.43,9.23-.82,18.46-6.33,26-5.51,7.54-13.63,12.47-22.86,13.9-1.81.28-3.62.42-5.42.42ZM405.41,103.11c-1.59,0-3.2.12-4.8.37-8.17,1.27-15.36,5.64-20.25,12.31-4.88,6.67-6.88,14.85-5.61,23.02,1.27,8.17,5.64,15.36,12.31,20.25,6.67,4.88,14.85,6.88,23.02,5.61,8.17-1.27,15.36-5.64,20.25-12.31s6.88-14.85,5.61-23.02c-1.27-8.17-5.64-15.36-12.31-20.25-5.36-3.92-11.7-5.98-18.22-5.98Z" style="fill:#000; stroke-width:0px;"/><path d="M417.26,213.14c-.18,0-.37-.03-.56-.08-1.06-.31-1.67-1.42-1.36-2.48l19.31-66.5c.31-1.06,1.42-1.67,2.48-1.36,1.06.31,1.67,1.42,1.36,2.48l-19.31,66.5c-.25.88-1.05,1.44-1.92,1.44Z" style="fill:#000; stroke-width:0px;"/><path d="M328.26,148.01c-.65,0-1.28-.31-1.66-.89-.61-.92-.37-2.16.55-2.77l57.54-38.53c.92-.61,2.16-.37,2.77.55.61.92.37,2.16-.55,2.77l-57.54,38.53c-.34.23-.73.34-1.11.34Z" style="fill:#000; stroke-width:0px;"/><path d="M358.8,197.62c-.43,0-.87-.14-1.24-.43-.87-.68-1.02-1.94-.34-2.81l42.82-54.42c.69-.87,1.94-1.02,2.81-.34.87.68,1.02,1.94.34,2.81l-42.82,54.42c-.4.5-.98.76-1.57.76Z" style="fill:#000; stroke-width:0px;"/><path d="M167.56,281.56c-.03-.76-.06-1.53-.06-2.3,0-29.22,23.69-52.91,52.91-52.91,20.52,0,38.3,11.69,47.08,28.77,6.76-3.58,14.46-5.62,22.65-5.62,22.16,0,40.84,14.89,46.59,35.22,17.27,7.4,29.36,24.55,29.36,44.53,0,26.75-21.68,48.43-48.43,48.43h-141.67c-26.75,0-48.43-21.68-48.43-48.43,0-23.87,17.28-43.7,40.01-47.69Z" style="fill:#c9cfff; stroke-width:0px;"/><path d="M317.65,379.67h-141.67c-27.81,0-50.43-22.62-50.43-50.43,0-23.95,16.7-44.43,39.96-49.33,0-.22,0-.44,0-.66,0-30.28,24.63-54.91,54.91-54.91,20.01,0,38.19,10.72,47.92,28.1,6.77-3.25,14.27-4.96,21.81-4.96,22.13,0,41.84,14.66,48.25,35.76,18.08,8.15,29.71,26.1,29.71,45.98,0,27.81-22.62,50.43-50.43,50.43ZM220.41,228.35c-28.07,0-50.91,22.84-50.91,50.91,0,.74.02,1.48.06,2.21.04,1-.66,1.88-1.65,2.06-22.22,3.9-38.35,23.13-38.35,45.72,0,25.6,20.83,46.43,46.43,46.43h141.67c25.6,0,46.43-20.83,46.43-46.43,0-18.6-11.05-35.36-28.15-42.69-.55-.24-.97-.71-1.14-1.29-5.63-19.88-24-33.76-44.67-33.76-7.55,0-15.06,1.86-21.71,5.39-.47.25-1.02.3-1.54.14-.51-.16-.93-.52-1.18-.99-8.77-17.08-26.13-27.68-45.3-27.68Z" style="fill:#000; stroke-width:0px;"/><path d="M446.22,296.23c-.02-.37-.03-.74-.03-1.11,0-14.1,11.43-25.53,25.53-25.53,9.9,0,18.48,5.64,22.71,13.88,3.26-1.73,6.98-2.71,10.93-2.71,10.69,0,19.7,7.19,22.48,16.99,8.33,3.57,14.17,11.85,14.17,21.48,0,12.91-10.46,23.37-23.37,23.37h-68.36c-12.91,0-23.37-10.46-23.37-23.37,0-11.52,8.34-21.08,19.3-23.01Z" style="fill:#c9cfff; stroke-width:0px;"/><path d="M518.64,344.61h-68.36c-13.99,0-25.37-11.38-25.37-25.37,0-11.77,8.01-21.86,19.28-24.62.27-14.95,12.51-27.02,27.52-27.02,9.71,0,18.56,5.04,23.54,13.26,3.17-1.38,6.63-2.1,10.1-2.1,10.98,0,20.77,7.17,24.13,17.54,8.85,4.19,14.52,13.09,14.52,22.93,0,13.99-11.38,25.37-25.37,25.37ZM471.72,271.59c-12.97,0-23.53,10.56-23.53,23.53,0,.34.01.68.03,1.02.04,1-.66,1.89-1.65,2.06-10.23,1.79-17.65,10.64-17.65,21.04,0,11.78,9.58,21.37,21.37,21.37h68.36c11.78,0,21.37-9.59,21.37-21.37,0-8.56-5.09-16.27-12.96-19.65-.55-.24-.97-.71-1.14-1.29-2.59-9.15-11.04-15.54-20.55-15.54-3.48,0-6.93.86-9.99,2.48-.47.25-1.03.3-1.54.14-.51-.16-.93-.52-1.18-.99-4.06-7.89-12.08-12.79-20.94-12.79Z" style="fill:#000; stroke-width:0px;"/><path d="M266.43,315.03c-.43,0-.87-.14-1.24-.43-.87-.68-1.02-1.94-.34-2.81l82.58-104.96c.69-.87,1.94-1.02,2.81-.34.87.68,1.02,1.94.34,2.81l-82.58,104.96c-.4.5-.98.76-1.57.76Z" style="fill:#000; stroke-width:0px;"/><path d="M259.53,290.79c-.43,0-.87-.14-1.24-.43-.87-.68-1.02-1.94-.34-2.81l93.26-118.53c.69-.87,1.94-1.02,2.81-.34.87.68,1.02,1.94.34,2.81l-93.26,118.53c-.4.5-.98.76-1.57.76Z" style="fill:#000; stroke-width:0px;"/><path d="M296.7,312.5c-.43,0-.87-.14-1.24-.43-.87-.68-1.02-1.94-.34-2.81l93.26-118.53c.69-.87,1.94-1.02,2.81-.34.87.68,1.02,1.94.34,2.81l-93.26,118.53c-.4.5-.98.76-1.57.76Z" style="fill:#000; stroke-width:0px;"/><path d="M271.98,317.79c0-21.92-20.9-39.65-46.72-39.65" style="fill:#c9cfff; stroke-width:0px;"/><path d="M271.98,319.79c-1.1,0-2-.9-2-2,0-20.76-20.06-37.65-44.72-37.65-1.1,0-2-.9-2-2s.9-2,2-2c26.86,0,48.72,18.68,48.72,41.65,0,1.1-.9,2-2,2Z" style="fill:#000; stroke-width:0px;"/><path d="M315.09,326.44c-15.51-23.17-50.16-27.13-77.46-8.85" style="fill:#c9cfff; stroke-width:0px;"/><path d="M315.09,328.44c-.65,0-1.28-.31-1.66-.89-7.17-10.71-18.85-17.49-32.88-19.09-14.15-1.62-29,2.21-41.81,10.79-.92.61-2.16.37-2.77-.55s-.37-2.16.55-2.77c13.6-9.1,29.4-13.17,44.49-11.44,15.22,1.74,27.91,9.14,35.75,20.84.61.92.37,2.16-.55,2.77-.34.23-.73.34-1.11.34Z" style="fill:#000; stroke-width:0px;"/><polygon points="231.48 331.09 263.19 313.26 284.33 316.27 299.52 318.64 309.53 331.09 309.53 341.5 231.48 331.09" style="fill:#c9cfff; stroke-width:0px;"/><path d="M137.37,187.12c0-12.48-3.51-15.99-15.99-15.99,12.48,0,15.99-3.51,15.99-15.99,0,12.48,3.51,15.99,15.99,15.99-12.48,0-15.99,3.51-15.99,15.99Z" style="fill:#7888ff; stroke-width:0px;"/><path d="M137.37,81.33c0-12.48-3.51-15.99-15.99-15.99,12.48,0,15.99-3.51,15.99-15.99,0,12.48,3.51,15.99,15.99,15.99-12.48,0-15.99,3.51-15.99,15.99Z" style="fill:#7888ff; stroke-width:0px;"/><path d="M83.76,136.26c0-7.43-2.09-9.51-9.51-9.51,7.43,0,9.51-2.09,9.51-9.51,0,7.43,2.09,9.51,9.51,9.51-7.43,0-9.51,2.09-9.51,9.51Z" style="fill:#7888ff; stroke-width:0px;"/><path d="M553.13,267.17c0-7.43-2.09-9.51-9.51-9.51,7.43,0,9.51-2.09,9.51-9.51,0,7.43,2.09,9.51,9.51,9.51-7.43,0-9.51,2.09-9.51,9.51Z" style="fill:#7888ff; stroke-width:0px;"/><path d="M188.85,100.36c0-7.43-2.09-9.51-9.51-9.51,7.43,0,9.51-2.09,9.51-9.51,0,7.43,2.09,9.51,9.51,9.51-7.43,0-9.51,2.09-9.51,9.51Z" style="fill:#7888ff; stroke-width:0px;"/><path d="M15.99,187.12c0-12.48-3.51-15.99-15.99-15.99,12.48,0,15.99-3.51,15.99-15.99,0,12.48,3.51,15.99,15.99,15.99-12.48,0-15.99,3.51-15.99,15.99Z" style="fill:#7888ff; stroke-width:0px;"/></g></svg>