<?xml version="1.0" encoding="UTF-8"?><svg xmlns="http://www.w3.org/2000/svg" viewBox="0 0 468 515.45"><defs><style>.de6de7af29f5,.fcdf2ad1bd2d{stroke-width:0px;}.fcdf2ad1bd2d{fill:#fff;}</style></defs><g><path class="fcdf2ad1bd2d" d="M466,515.45c0-114.09-92.82-206.91-206.91-206.91s-206.91,92.82-206.91,206.91"/><path class="de6de7af29f5" d="M468,515.45h-4c0-112.99-91.92-204.91-204.91-204.91s-204.91,91.92-204.91,204.91h-4c0-115.2,93.72-208.91,208.91-208.91s208.91,93.72,208.91,208.91Z"/><rect class="fcdf2ad1bd2d" x="159.36" y="2" width="9.86" height="361.17" rx="4.93" ry="4.93"/><path class="de6de7af29f5" d="M164.29,365.17c-3.82,0-6.93-3.11-6.93-6.93V6.93c0-3.82,3.11-6.93,6.93-6.93s6.93,3.11,6.93,6.93v351.32c0,3.82-3.11,6.93-6.93,6.93ZM164.29,4c-1.61,0-2.93,1.31-2.93,2.93v351.32c0,1.62,1.31,2.93,2.93,2.93s2.93-1.31,2.93-2.93V6.93c0-1.62-1.31-2.93-2.93-2.93Z"/><rect class="fcdf2ad1bd2d" x="230.6" y="150.42" width="135.88" height="152.8" rx="17.46" ry="17.46" transform="translate(550.8 -50.56) rotate(95.06)"/><path class="de6de7af29f5" d="M352.83,301.76c-.58,0-1.16-.03-1.75-.08l-117.41-10.39c-5.18-.46-9.87-2.91-13.21-6.89-3.34-3.99-4.92-9.03-4.47-14.21h0l8.9-100.56c.46-5.18,2.91-9.87,6.89-13.21,3.99-3.34,9.04-4.92,14.21-4.46l117.41,10.39c5.18.46,9.87,2.91,13.21,6.89,3.34,3.99,4.92,9.03,4.46,14.21l-8.9,100.56c-.46,5.18-2.91,9.87-6.89,13.21-3.54,2.96-7.91,4.54-12.46,4.54ZM219.98,270.54c-.36,4.11.9,8.12,3.55,11.29,2.65,3.17,6.38,5.11,10.49,5.47l117.41,10.39c4.12.36,8.12-.9,11.29-3.55,3.17-2.65,5.11-6.38,5.48-10.49l8.9-100.56c.36-4.11-.9-8.12-3.55-11.29-2.65-3.17-6.38-5.11-10.49-5.48l-117.41-10.39c-4.12-.36-8.12.89-11.29,3.55-3.17,2.65-5.11,6.38-5.48,10.49l-8.9,100.56Z"/><path class="de6de7af29f5" d="M132.99,408.88c-11.66,0-21.15,9.49-21.15,21.14s9.49,21.14,21.15,21.14,21.14-9.49,21.14-21.14-9.49-21.14-21.14-21.14ZM115.84,430.03c0-9.45,7.69-17.14,17.15-17.14,4.66,0,8.88,1.87,11.97,4.89-10.53.05-19.06,8.6-19.06,19.14,0,3.52.96,6.81,2.62,9.64-7.29-1.97-12.67-8.63-12.67-16.53Z"/><path class="de6de7af29f5" d="M379.14,426.94c-19.1,0-34.64,15.54-34.64,34.64s15.54,34.64,34.64,34.64,34.64-15.54,34.64-34.64-15.54-34.64-34.64-34.64ZM348.5,461.58c0-16.9,13.75-30.64,30.64-30.64,8.86,0,16.85,3.78,22.45,9.82-.63-.04-1.26-.07-1.9-.07-18.03,0-32.64,14.61-32.64,32.64,0,6.73,2.05,12.99,5.54,18.19-13.76-3.01-24.1-15.28-24.1-29.93Z"/><polygon class="fcdf2ad1bd2d" points="2 86.93 175.63 86.93 175.63 16.67 2 16.67 27.23 51.8 2 86.93"/><path class="de6de7af29f5" d="M175.63,88.93H2c-.75,0-1.44-.42-1.78-1.09-.34-.67-.28-1.47.15-2.08l24.39-33.97L.38,17.83c-.44-.61-.5-1.41-.15-2.08.34-.67,1.03-1.09,1.78-1.09h173.63c1.1,0,2,.9,2,2v70.27c0,1.1-.9,2-2,2ZM5.9,84.93h167.73V18.67H5.9l22.96,31.97c.5.7.5,1.64,0,2.33l-22.96,31.97Z"/><path class="de6de7af29f5" d="M53.54,71.43c-3.92.04-7.05-1-9.37-3.11-2.32-2.11-3.5-4.97-3.53-8.59l7.68-.07c.01,1.57.49,2.82,1.42,3.75.93.93,2.18,1.39,3.75,1.37,1.57-.01,2.81-.48,3.72-1.39.91-.91,1.36-2.15,1.35-3.72l-.17-19.04-8.44.08-.06-7.16,16.12-.15.24,26.2c.03,3.62-1.09,6.48-3.35,8.6-2.27,2.12-5.38,3.2-9.34,3.23Z"/><path class="de6de7af29f5" d="M85.78,71.09c-3.79.03-6.79-.96-9.01-2.99-2.22-2.03-3.34-4.81-3.38-8.36l-.24-26.4,7.68-.07.24,26.35c.01,1.57.43,2.77,1.23,3.6.81.83,1.95,1.24,3.41,1.22s2.55-.44,3.37-1.28c.81-.84,1.21-2.05,1.2-3.62l-.24-26.35,7.68-.07.24,26.4c.03,3.51-1.04,6.31-3.23,8.4-2.18,2.08-5.17,3.14-8.95,3.18Z"/><path class="de6de7af29f5" d="M104.2,70.42l-.34-37.35,8.95-.08,9.93,28.82c-.11-1.26-.25-2.72-.4-4.37-.15-1.65-.28-3.31-.38-4.96-.1-1.65-.15-3.06-.17-4.22l-.14-15.35,6.75-.06.34,37.35-8.95.08-9.83-28.82c.11,1.09.23,2.39.34,3.89.12,1.5.22,3.02.32,4.55.1,1.54.15,2.9.16,4.09l.15,16.37-6.75.06Z"/><path class="de6de7af29f5" d="M147.18,70.54c-2.49.02-4.66-.43-6.51-1.35-1.85-.92-3.29-2.22-4.31-3.9-1.02-1.68-1.54-3.65-1.56-5.9l-.14-15.86c-.02-2.25.46-4.23,1.46-5.92.99-1.7,2.4-3.02,4.24-3.98,1.83-.95,4-1.44,6.49-1.47,2.52-.02,4.7.43,6.54,1.35,1.83.92,3.26,2.22,4.28,3.9,1.02,1.68,1.54,3.65,1.56,5.9l.14,15.86c.02,2.25-.47,4.23-1.46,5.92-.99,1.7-2.4,3.02-4.21,3.98-1.82.95-3.99,1.44-6.51,1.47ZM147.12,63.89c1.53-.01,2.68-.42,3.44-1.23.76-.81,1.13-1.95,1.12-3.41l-.14-15.86c-.01-1.5-.4-2.64-1.16-3.42-.76-.78-1.92-1.16-3.49-1.15-1.57.01-2.73.42-3.47,1.21s-1.11,1.94-1.09,3.44l.14,15.86c.01,1.47.41,2.6,1.18,3.39.78.79,1.93,1.18,3.47,1.17Z"/><path class="fcdf2ad1bd2d" d="M271.74,311.75c3.71,3.88,8.93,7.14,17.87,8.6"/><path class="de6de7af29f5" d="M289.6,322.35c-.11,0-.22,0-.32-.03-8.24-1.34-14.27-4.26-18.99-9.19-.76-.8-.74-2.06.06-2.83.8-.77,2.06-.74,2.83.06,4.09,4.27,9.41,6.81,16.74,8.01,1.09.18,1.83,1.21,1.65,2.3-.16.98-1.01,1.68-1.97,1.68Z"/><path class="fcdf2ad1bd2d" d="M185.53,171.32s131.56,4.96,145.2,9.5,50.14,5.76,61.73,62.25c9.72,47.35,4.62,5.85-13.9,3.67-8.62-1.01-17.82,23.93-17.52,33.51.71,22.48-5.11,59.63-3.46,70.78s-56.6,17.35-56.6,17.35c0,0-.83-20.24-4.13-31.81-3.31-11.57-10.74-16.94-10.74-16.94l-29.06,17.64-14.02,13.68-36.66-4.1s-1.65-21.85,3.72-33.83c5.37-11.98,21.48-29.33,22.72-40.9,1.24-11.57,4.26-43.79,4.26-43.79l-68.29-19.42,16.76-37.6Z"/><path class="de6de7af29f5" d="M300.98,370.39c-.48,0-.94-.17-1.31-.49-.42-.36-.67-.88-.69-1.43,0-.2-.85-20.14-4.06-31.34-2.36-8.25-6.98-13.18-9.01-15.03l-27.64,16.78-13.86,13.52c-.43.42-1.02.63-1.62.56l-36.66-4.1c-.96-.11-1.7-.88-1.77-1.84-.07-.91-1.62-22.5,3.89-34.8,2.18-4.87,5.95-10.4,9.93-16.25,5.86-8.61,11.93-17.52,12.63-24.04,1.06-9.92,3.46-35.37,4.1-42.11l-66.69-18.96c-.56-.16-1.02-.55-1.27-1.08s-.25-1.13-.01-1.66l16.75-37.6c.33-.75,1.08-1.22,1.9-1.18,5.38.2,132.01,5.02,145.75,9.6,1.67.56,3.73,1.07,6.11,1.66,16.28,4.05,46.59,11.59,56.95,62.09,1.88,9.16,3.2,14.96,3.98,18.42.33,1.46.57,2.5.7,3.17.18.87.54,2.66-1.17,3.27-1.75.63-2.48-.84-3.25-2.39-1.89-3.8-7.63-15.38-16.37-16.41-1.3-.16-2.67.83-3.6,1.69-6.33,5.81-11.91,22.81-11.69,29.77.36,11.39-.95,26.58-2.1,39.98-1.12,12.98-2.17,25.24-1.38,30.57.15,1.04.06,2.63-1.27,4.34-7.56,9.77-52.05,14.76-57.1,15.29-.07,0-.14.01-.21.01ZM286.1,317.64c.41,0,.82.13,1.17.38.33.24,8.04,5.92,11.49,18.01,2.73,9.56,3.79,24.56,4.1,30.13,4.02-.48,13.26-1.67,22.9-3.49,22-4.16,27.83-8.07,29.35-10.03.5-.65.51-1.06.47-1.31-.86-5.79.17-17.71,1.35-31.5,1.14-13.29,2.44-28.36,2.09-39.51-.25-7.85,5.59-26.07,12.98-32.85,2.25-2.06,4.52-2.98,6.77-2.71,5.98.7,10.63,4.96,13.96,9.36-.63-2.9-1.38-6.41-2.25-10.64-9.86-48.03-37.49-54.9-54-59.01-2.46-.61-4.59-1.14-6.41-1.75-10.47-3.49-97.5-7.61-143.29-9.35l-15.27,34.25,66.07,18.79c.93.26,1.53,1.15,1.44,2.11-.03.32-3.03,32.37-4.26,43.82-.81,7.52-7.16,16.85-13.3,25.87-3.88,5.7-7.55,11.09-9.59,15.64-4.27,9.52-3.89,25.98-3.65,31.21l34.04,3.81,13.34-13.02c.11-.11.23-.2.36-.28l29.06-17.64c.32-.19.68-.29,1.04-.29Z"/><rect class="fcdf2ad1bd2d" x="269.05" y="235.03" width="50.46" height="42.49" rx="5.61" ry="5.61" transform="translate(12.7 -13.89) rotate(2.76)"/><path class="de6de7af29f5" d="M313.14,280.45c-.12,0-.25,0-.38,0l-39.2-1.89c-4.19-.2-7.43-3.78-7.23-7.96l1.51-31.24c.1-2.03.98-3.9,2.48-5.26,1.5-1.37,3.45-2.05,5.48-1.97l39.2,1.89c2.03.1,3.9.98,5.26,2.48,1.37,1.5,2.06,3.45,1.97,5.48l-1.51,31.24c-.1,2.03-.98,3.9-2.48,5.26-1.41,1.28-3.21,1.97-5.1,1.97ZM275.43,236.1c-1.91,0-3.51,1.5-3.6,3.43l-1.51,31.24c-.1,1.99,1.44,3.68,3.43,3.78l39.2,1.89h0c.97.04,1.88-.28,2.6-.93.71-.65,1.13-1.53,1.18-2.5l1.51-31.24c.05-.96-.28-1.88-.93-2.6-.65-.71-1.53-1.13-2.5-1.18l-39.2-1.89c-.06,0-.12,0-.18,0Z"/><path class="fcdf2ad1bd2d" d="M291.33,256.13c-.16,3.35-3.01,5.94-6.37,5.78-3.35-.16-5.94-3.01-5.78-6.37.16-3.35,3.01-5.94,6.37-5.78,3.35.16,5.94,3.01,5.78,6.37Z"/><path class="de6de7af29f5" d="M285.26,263.92c-.13,0-.26,0-.39,0-2.16-.1-4.14-1.04-5.59-2.64s-2.19-3.67-2.09-5.82c.21-4.45,4.01-7.86,8.46-7.68,2.16.1,4.14,1.04,5.59,2.64s2.19,3.67,2.09,5.82c-.21,4.32-3.79,7.69-8.06,7.69ZM285.25,251.76c-2.16,0-3.97,1.7-4.07,3.88-.05,1.09.32,2.13,1.05,2.94s1.74,1.28,2.82,1.33c2.24.12,4.16-1.63,4.27-3.88.05-1.09-.32-2.13-1.05-2.94s-1.74-1.28-2.82-1.33c-.07,0-.13,0-.2,0Z"/><path class="de6de7af29f5" d="M307.57,269.28s-.06,0-.1,0c-1.1-.05-1.95-.99-1.9-2.09l1-20.69c.05-1.1.99-1.91,2.09-1.9,1.1.05,1.95.99,1.9,2.09l-1,20.69c-.05,1.07-.94,1.9-2,1.9Z"/><path class="de6de7af29f5" d="M298.29,268.84s-.06,0-.1,0c-1.1-.05-1.95-.99-1.9-2.09l1-20.69c.05-1.1.97-1.93,2.09-1.9,1.1.05,1.95.99,1.9,2.09l-1,20.69c-.05,1.07-.94,1.9-2,1.9Z"/><path class="fcdf2ad1bd2d" d="M299.89,354.22l1.09,26.15-10.56,1.64c-7.91,1.23-13.76,8.01-13.82,16.01-.08,9.47,7.89,17.02,17.35,16.43l49-2.68c8.23-.51,14.93-6.79,15.99-14.96v-45.85c-21.43,5.35-41.63,6.52-59.05,3.25Z"/><path class="de6de7af29f5" d="M292.94,416.49c-4.66,0-9.2-1.8-12.61-5.03-3.68-3.49-5.76-8.39-5.72-13.46.07-9.02,6.6-16.58,15.52-17.97l8.79-1.37-1.02-24.36c-.03-.61.23-1.2.69-1.6s1.08-.56,1.68-.45c16.9,3.17,37.02,2.05,58.2-3.23.6-.15,1.23-.01,1.72.36.49.38.77.96.77,1.58v45.85c0,.09,0,.17-.02.26-1.18,9.11-8.69,16.13-17.85,16.7l-49.01,2.68c-.37.02-.75.04-1.12.04ZM301.99,356.62l.99,23.67c.04,1.02-.69,1.9-1.69,2.06l-10.56,1.64c-6.97,1.08-12.07,6.99-12.13,14.05-.03,4.02,1.56,7.76,4.47,10.52,2.92,2.76,6.74,4.16,10.75,3.9l49.01-2.68c7.2-.45,13.12-5.95,14.1-13.1v-43.17c-19.81,4.66-38.7,5.73-54.95,3.11Z"/><path class="fcdf2ad1bd2d" d="M206.08,340.1l.94,22.57-9.11,1.42c-6.82,1.06-11.87,6.91-11.93,13.81-.07,8.18,6.81,14.69,14.97,14.18l42.29-2.31c7.1-.44,12.89-5.86,13.8-12.91v-39.57c-18.5,4.62-35.94,5.63-50.97,2.81Z"/><path class="de6de7af29f5" d="M200.08,394.11c-4.09,0-8.08-1.58-11.07-4.41-3.23-3.06-5.06-7.37-5.03-11.82.06-7.92,5.79-14.56,13.62-15.77l7.35-1.14-.87-20.78c-.03-.61.23-1.2.69-1.6.46-.4,1.08-.56,1.68-.45,14.55,2.73,31.88,1.77,50.11-2.78.6-.15,1.23-.01,1.72.36.49.38.77.96.77,1.58v39.57c0,.09,0,.17-.02.26-1.03,7.99-7.62,14.15-15.66,14.65l-42.31,2.31c-.33.02-.66.03-.98.03ZM208.18,342.49l.84,20.09c.04,1.02-.69,1.9-1.69,2.06l-9.11,1.42c-5.88.92-10.19,5.9-10.24,11.85-.03,3.39,1.31,6.55,3.78,8.88,2.46,2.33,5.68,3.5,9.07,3.29l42.31-2.31c6.08-.38,11.07-5.02,11.91-11.05v-36.9c-16.87,3.93-32.97,4.84-46.86,2.66Z"/><path class="fcdf2ad1bd2d" d="M374.66,143.09l8.51-3.82c5.11-2.3,8.11-6.77,7.52-11.25l-3.37-25.68c-.59-4.48-4.63-8.03-10.17-8.93l-9.21-1.5"/><path class="de6de7af29f5" d="M374.66,145.09c-.76,0-1.49-.44-1.83-1.18-.45-1.01,0-2.19,1.01-2.64l8.51-3.82c4.27-1.92,6.82-5.6,6.35-9.17l-3.37-25.68c-.47-3.57-3.89-6.47-8.5-7.22l-9.21-1.5c-1.09-.18-1.83-1.21-1.65-2.29.18-1.09,1.2-1.84,2.29-1.65l9.21,1.5c6.38,1.04,11.13,5.31,11.83,10.64l3.37,25.68c.7,5.33-2.79,10.69-8.68,13.33l-8.51,3.82c-.27.12-.54.18-.82.18Z"/><path class="fcdf2ad1bd2d" d="M237.41,161.1l-9.21-1.5c-5.53-.9-9.58-4.45-10.17-8.93l-3.37-25.68c-.59-4.48,2.4-8.95,7.52-11.25l8.51-3.82"/><path class="de6de7af29f5" d="M237.41,163.1c-.11,0-.21,0-.32-.03l-9.21-1.5c-6.38-1.04-11.13-5.31-11.83-10.64l-3.37-25.68c-.7-5.33,2.79-10.69,8.68-13.34l8.51-3.82c1.01-.46,2.19,0,2.64,1,.45,1.01,0,2.19-1.01,2.64l-8.51,3.82c-4.27,1.92-6.82,5.6-6.35,9.17l3.37,25.68c.47,3.57,3.89,6.47,8.5,7.22l9.21,1.5c1.09.18,1.83,1.21,1.65,2.29-.16.98-1.01,1.68-1.97,1.68Z"/><circle class="fcdf2ad1bd2d" cx="302.05" cy="121.77" r="73.33"/><path class="de6de7af29f5" d="M301.9,197.12c-16.49,0-32.43-5.39-45.73-15.6-15.96-12.26-26.19-29.99-28.81-49.95-2.62-19.95,2.69-39.73,14.94-55.69,12.26-15.96,29.99-26.19,49.94-28.81,41.18-5.41,79.09,23.71,84.5,64.89h0c2.62,19.95-2.69,39.73-14.94,55.69-12.26,15.96-29.99,26.19-49.95,28.81-3.33.44-6.66.65-9.96.65ZM302.1,50.43c-3.08,0-6.2.2-9.33.61-18.89,2.48-35.69,12.17-47.29,27.28s-16.63,33.84-14.15,52.73c2.48,18.89,12.17,35.69,27.28,47.29,15.11,11.61,33.84,16.63,52.73,14.15,18.89-2.48,35.69-12.17,47.29-27.28,11.61-15.11,16.63-33.84,14.15-52.73-4.71-35.86-35.44-62.06-70.68-62.06Z"/><ellipse class="de6de7af29f5" cx="303.28" cy="131.24" rx="71.46" ry="40.18" transform="translate(-14.5 40.58) rotate(-7.48)"/><path class="de6de7af29f5" d="M292.14,174.17c-13.2,0-25.61-2.15-36.01-6.32-15.07-6.05-24.19-15.66-25.69-27.04-1.5-11.39,4.84-23.02,17.84-32.76,12.67-9.48,30.25-16.1,49.51-18.63,19.26-2.53,37.95-.67,52.64,5.22,15.07,6.05,24.19,15.66,25.69,27.04,1.5,11.39-4.84,23.02-17.84,32.76-12.66,9.48-30.25,16.1-49.51,18.63-5.62.74-11.19,1.1-16.63,1.1ZM314.44,92.31c-5.23,0-10.62.35-16.13,1.07-18.59,2.44-35.51,8.78-47.63,17.86-11.79,8.83-17.57,19.14-16.27,29.04,2.34,17.85,26.9,29.89,57.71,29.89,5.23,0,10.62-.35,16.13-1.07,18.59-2.44,35.51-8.78,47.63-17.86,11.79-8.83,17.57-19.14,16.27-29.04-2.34-17.85-26.9-29.89-57.71-29.89Z"/><path class="de6de7af29f5" d="M293.81,167.66c-34.06,0-62-16.5-65.12-40.23-3.54-26.94,26.26-53.15,66.42-58.42,40.16-5.26,75.71,12.36,79.25,39.3,1.73,13.21-4.33,26.58-17.07,37.64-12.51,10.86-30.04,18.24-49.35,20.78-4.79.63-9.52.93-14.13.93ZM309.37,72.08c-4.48,0-9.07.29-13.73.91-37.97,4.98-66.23,29.18-62.98,53.93,3.25,24.75,36.79,40.84,74.76,35.85,18.54-2.43,35.32-9.48,47.25-19.83,11.7-10.16,17.28-22.26,15.73-34.1-2.85-21.71-29.01-36.76-61.03-36.76Z"/><path class="fcdf2ad1bd2d" d="M263.05,306.13c2.76,5.49,11.11,10.05,21.34,11.04,10.24.99,19.31-1.87,23.07-6.73"/><path class="de6de7af29f5" d="M288.46,319.37c-1.4,0-2.82-.07-4.26-.21-10.76-1.04-19.76-5.81-22.94-12.13-.5-.99-.1-2.19.89-2.68.99-.49,2.19-.1,2.68.89,2.53,5.05,10.47,9.05,19.75,9.95,9.28.9,17.84-1.5,21.29-5.96.68-.87,1.93-1.03,2.81-.36.87.68,1.03,1.93.36,2.81-3.75,4.85-11.57,7.7-20.58,7.7Z"/><path class="fcdf2ad1bd2d" d="M169.22,161.1h6.97c11.62,0,21.05,9.43,21.05,21.05v13.95c0,11.62-9.43,21.05-21.05,21.05h-6.97c-15.47,0-28.03-12.56-28.03-28.03h0c0-15.47,12.56-28.03,28.03-28.03Z"/><path class="de6de7af29f5" d="M176.2,219.16h-6.97c-16.56,0-30.03-13.47-30.03-30.03s13.47-30.03,30.03-30.03h6.97c12.71,0,23.05,10.34,23.05,23.05v13.95c0,12.71-10.34,23.05-23.05,23.05ZM169.22,163.1c-14.35,0-26.03,11.68-26.03,26.03s11.68,26.03,26.03,26.03h6.97c10.51,0,19.05-8.55,19.05-19.05v-13.95c0-10.51-8.55-19.05-19.05-19.05h-6.97Z"/><path class="de6de7af29f5" d="M361.2,276.36c-.06,0-.12,0-.18,0-1.1-.09-1.92-1.06-1.82-2.17,1.98-22.83-4.92-46.1-4.99-46.33-.32-1.06.28-2.17,1.34-2.49,1.06-.32,2.17.28,2.49,1.34.29.98,7.19,24.24,5.15,47.83-.09,1.04-.96,1.83-1.99,1.83Z"/><path class="fcdf2ad1bd2d" d="M391.97,231.69c.44-2.36,1.07-4.47,1.83-6.33,5.07-12.39,16.2-14.24,19.43-8.82,3.17,5.33-8.64,15.63-1.1,31.74"/><path class="de6de7af29f5" d="M412.13,250.28c-.75,0-1.47-.43-1.81-1.15-5-10.7-2.1-18.92.02-24.92,1.02-2.9,1.91-5.41,1.18-6.64-.8-1.35-2.42-2.04-4.42-1.88-3.41.25-8.45,3.14-11.44,10.44-.74,1.81-1.32,3.81-1.72,5.95-.2,1.09-1.25,1.8-2.33,1.6-1.09-.2-1.8-1.25-1.6-2.33.45-2.41,1.11-4.67,1.95-6.72,3.67-8.98,10.07-12.55,14.84-12.91,3.52-.26,6.57,1.17,8.16,3.83,1.69,2.84.52,6.17-.84,10.02-2,5.65-4.48,12.68-.17,21.9.47,1,.04,2.19-.96,2.66-.27.13-.56.19-.85.19Z"/><path class="fcdf2ad1bd2d" d="M386.95,231.93h6.97c11.62,0,21.05,9.43,21.05,21.05v13.95c0,11.62-9.43,21.05-21.05,21.05h-6.97c-15.47,0-28.03-12.56-28.03-28.03h0c0-15.47,12.56-28.03,28.03-28.03Z" transform="translate(567.67 689.67) rotate(-146.7)"/><path class="de6de7af29f5" d="M386.89,290c-5.79,0-11.47-1.68-16.42-4.94l-5.83-3.83h0c-10.62-6.98-13.59-21.3-6.61-31.92l7.66-11.66c6.98-10.63,21.3-13.59,31.93-6.61l5.83,3.83c6.7,4.4,11.29,11.15,12.92,19.01,1.63,7.85.1,15.87-4.31,22.58-4.4,6.7-11.15,11.29-19.01,12.92-2.05.42-4.11.63-6.15.63ZM366.84,277.89l5.83,3.83c5.81,3.82,12.76,5.14,19.57,3.73,6.81-1.41,12.66-5.39,16.48-11.2,3.82-5.81,5.14-12.76,3.73-19.57s-5.39-12.66-11.2-16.47l-5.83-3.83c-4.25-2.79-9.34-3.77-14.32-2.73-4.98,1.03-9.27,3.94-12.06,8.2l-7.66,11.66c-5.77,8.78-3.31,20.62,5.46,26.39h0Z"/><path class="de6de7af29f5" d="M187.94,515.45c-2.78-6.52-4.32-13.7-4.32-21.22,0-29.99,24.4-54.39,54.39-54.39,16.27,0,30.89,7.19,40.86,18.56-1.76-.17-3.55-.26-5.36-.26-31.14,0-56.39,25.25-56.39,56.39,0,.31.01.62.02.93h75.24c2.58-6.58,4.01-13.74,4.01-21.22,0-32.2-26.19-58.39-58.39-58.39s-58.39,26.19-58.39,58.39c0,7.49,1.43,14.64,4.01,21.22h4.31Z"/></g></svg>
